<svg width="34" height="34" viewBox="0 0 34 34" fill="none" xmlns="http://www.w3.org/2000/svg">
<g id="circle-exclamation-regular 1" clip-path="url(#clip0_218_1288)">
<path id="Vector" d="M17 3.1875C13.3367 3.1875 9.82343 4.64274 7.23309 7.23309C4.64274 9.82343 3.1875 13.3367 3.1875 17C3.1875 20.6633 4.64274 24.1766 7.23309 26.7669C9.82343 29.3573 13.3367 30.8125 17 30.8125C20.6633 30.8125 24.1766 29.3573 26.7669 26.7669C29.3573 24.1766 30.8125 20.6633 30.8125 17C30.8125 13.3367 29.3573 9.82343 26.7669 7.23309C24.1766 4.64274 20.6633 3.1875 17 3.1875ZM17 34C12.4913 34 8.1673 32.2089 4.97918 29.0208C1.79107 25.8327 0 21.5087 0 17C0 12.4913 1.79107 8.1673 4.97918 4.97919C8.1673 1.79107 12.4913 0 17 0C21.5087 0 25.8327 1.79107 29.0208 4.97919C32.2089 8.1673 34 12.4913 34 17C34 21.5087 32.2089 25.8327 29.0208 29.0208C25.8327 32.2089 21.5087 34 17 34ZM17 8.5C17.8832 8.5 18.5938 9.21055 18.5938 10.0938V17.5312C18.5938 18.4145 17.8832 19.125 17 19.125C16.1168 19.125 15.4062 18.4145 15.4062 17.5312V10.0938C15.4062 9.21055 16.1168 8.5 17 8.5ZM14.875 23.375C14.875 22.8114 15.0989 22.2709 15.4974 21.8724C15.8959 21.4739 16.4364 21.25 17 21.25C17.5636 21.25 18.1041 21.4739 18.5026 21.8724C18.9011 22.2709 19.125 22.8114 19.125 23.375C19.125 23.9386 18.9011 24.4791 18.5026 24.8776C18.1041 25.2761 17.5636 25.5 17 25.5C16.4364 25.5 15.8959 25.2761 15.4974 24.8776C15.0989 24.4791 14.875 23.9386 14.875 23.375Z" fill="#335FFF"/>
</g>
<defs>
<clipPath id="clip0_218_1288">
<rect width="34" height="34" fill="white" transform="matrix(-1 0 0 1 34 0)"/>
</clipPath>
</defs>
</svg>
