<svg id="icon_캡션로고_팝업_20" xmlns="http://www.w3.org/2000/svg" xmlns:xlink="http://www.w3.org/1999/xlink" width="20" height="18.571" viewBox="0 0 20 18.571">
  <defs>
    <clipPath id="clip-path">
      <rect id="사각형_2176" data-name="사각형 2176" width="20" height="18.571" transform="translate(0 0)" fill="#d3d8e0"/>
    </clipPath>
  </defs>
  <g id="그룹_3961" data-name="그룹 3961" clip-path="url(#clip-path)">
    <path id="패스_8829" data-name="패스 8829" d="M15.714,0H4.286A4.291,4.291,0,0,0,0,4.286V10a4.291,4.291,0,0,0,4.286,4.286H6.747l6.8,4.081a1.428,1.428,0,0,0,2.164-1.224V14.286A4.291,4.291,0,0,0,20,10V4.286A4.291,4.291,0,0,0,15.714,0m1.428,10a1.43,1.43,0,0,1-1.428,1.428H14.286a1.428,1.428,0,0,0-1.428,1.428h0v1.761L7.879,11.631a1.436,1.436,0,0,0-.736-.2H4.286A1.43,1.43,0,0,1,2.857,10V4.286A1.43,1.43,0,0,1,4.286,2.857H15.714a1.43,1.43,0,0,1,1.428,1.428Z" transform="translate(0 0)" fill="#d3d8e0"/>
    <path id="패스_8830" data-name="패스 8830" d="M29.215,28.712a1.711,1.711,0,1,1,1.711,1.711,1.711,1.711,0,0,1-1.711-1.711" transform="translate(-23.412 -21.638)" fill="#d3d8e0"/>
    <path id="패스_8831" data-name="패스 8831" d="M55.125,28.712a1.711,1.711,0,1,1,1.711,1.711,1.711,1.711,0,0,1-1.711-1.711" transform="translate(-44.176 -21.638)" fill="#d3d8e0"/>
  </g>
</svg>
