<svg xmlns="http://www.w3.org/2000/svg" xmlns:xlink="http://www.w3.org/1999/xlink" width="20" height="20" viewBox="0 0 20 20">
  <defs>
    <linearGradient id="linear-gradient" x1="1" y1="1" x2="0" y2="0.036" gradientUnits="objectBoundingBox">
      <stop offset="0" stop-color="#575f6b"/>
      <stop offset="1" stop-color="#2c3036"/>
    </linearGradient>
    <clipPath id="clip-path">
      <rect id="사각형_2499" data-name="사각형 2499" width="20" height="20" fill="url(#linear-gradient)"/>
    </clipPath>
  </defs>
  <g id="그룹_4375" data-name="그룹 4375" clip-path="url(#clip-path)">
    <path id="합치기_13" data-name="합치기 13" d="M-2545.042-502.75a2.294,2.294,0,0,1-2.291-2.291l-.784-9.375h-.259a.625.625,0,0,1-.625-.625.625.625,0,0,1,.625-.625h3.542v-1.875a1.46,1.46,0,0,1,1.458-1.459h3.333a1.46,1.46,0,0,1,1.458,1.459v1.875h3.542a.625.625,0,0,1,.625.625.625.625,0,0,1-.625.625h-.258l-.786,9.427a2.281,2.281,0,0,1-2.29,2.24Zm-1.043-2.345a1.058,1.058,0,0,0,1.043,1.094h6.667a1.043,1.043,0,0,0,1.042-1.041l.779-9.375h-10.307Zm6.251-10.572v-1.875a.209.209,0,0,0-.208-.209h-3.333a.209.209,0,0,0-.209.209v1.875Z" transform="translate(2551.708 520.875)" stroke="rgba(0,0,0,0)" stroke-miterlimit="10" stroke-width="1" fill="url(#linear-gradient)"/>
    <path id="패스_9199" data-name="패스 9199" d="M9.875,16.5a.625.625,0,0,1-.625-.625v-5a.625.625,0,0,1,1.25,0v5a.625.625,0,0,1-.625.625" transform="translate(-1.542 -1.708)" fill="url(#linear-gradient)"/>
    <path id="패스_9200" data-name="패스 9200" d="M13.875,16.5a.625.625,0,0,1-.625-.625v-5a.625.625,0,0,1,1.25,0v5a.625.625,0,0,1-.625.625" transform="translate(-2.208 -1.708)" fill="url(#linear-gradient)"/>
  </g>
</svg>
