<svg id="Close_Button:_X" data-name="Close Button: X" xmlns="http://www.w3.org/2000/svg" width="8" height="8" viewBox="0 0 8 8">
  <path id="Close_Button:_X-2" data-name="Close Button: X" d="M10.273-12.612,13.182-9.7a.639.639,0,0,1,0,.9.639.639,0,0,1-.9,0L9.369-11.708,6.46-8.8a.639.639,0,0,1-.9,0,.639.639,0,0,1,0-.9l2.909-2.909L5.556-15.521a.639.639,0,0,1,0-.9.639.639,0,0,1,.9,0l2.909,2.909,2.909-2.909a.639.639,0,0,1,.9,0,.639.639,0,0,1,0,.9Z" transform="translate(-5.369 16.612)" fill="#686d75" fill-rule="evenodd"/>
</svg>
