<svg id="icon_히스토리" xmlns="http://www.w3.org/2000/svg" xmlns:xlink="http://www.w3.org/1999/xlink" width="20" height="20" viewBox="0 0 20 20">
  <defs>
    <clipPath id="clip-path">
      <rect id="사각형_2712" data-name="사각형 2712" width="20" height="20" fill="#a7b1c2"/>
    </clipPath>
  </defs>
  <g id="그룹_17171" data-name="그룹 17171" clip-path="url(#clip-path)">
    <path id="패스_9395" data-name="패스 9395" d="M14.536,2.556A8.985,8.985,0,0,1,17.77,14.861,9.012,9.012,0,0,1,10,19.326a9.192,9.192,0,0,1-4.079-.985,9.087,9.087,0,0,1-3.129-2.6.625.625,0,0,1,.106-.809.577.577,0,0,1,.809.105,7.819,7.819,0,0,0,10.265,2.075A7.38,7.38,0,0,0,16.786,14.3a7.79,7.79,0,0,0,0-7.945A7.387,7.387,0,0,0,13.973,3.54a7.781,7.781,0,0,0-8.226.176A7.477,7.477,0,0,0,2.9,6.95H6.063a.563.563,0,0,1,0,1.125h-4.5A.54.54,0,0,1,1,7.513v-4.5a.542.542,0,0,1,.563-.563.541.541,0,0,1,.562.563V5.931A9.4,9.4,0,0,1,5.36,2.591,9.177,9.177,0,0,1,10,1.326a8.936,8.936,0,0,1,4.535,1.23M10.563,6.388v3.691L13.2,12.751a.547.547,0,1,1-.774.774L9.614,10.712a.575.575,0,0,1-.211-.386V6.388a.569.569,0,0,1,.562-.562H10a.54.54,0,0,1,.562.562" fill="#686D75"/>
  </g>
</svg>
