<svg id="icon_일시정지" xmlns="http://www.w3.org/2000/svg" xmlns:xlink="http://www.w3.org/1999/xlink" width="12" height="12" viewBox="0 0 12 12">
  <defs>
    <linearGradient id="linear-gradient" x1="2.85" y1="1" x2="0" gradientUnits="objectBoundingBox">
      <stop offset="0" stop-color="#335fff"/>
      <stop offset="1" stop-color="#2848ff"/>
    </linearGradient>
  </defs>
  <rect id="사각형_2753" data-name="사각형 2753" width="12" height="12" fill="none"/>
  <g id="pause-filled" transform="translate(1)">
    <path id="패스_8203" data-name="패스 8203" d="M11.4,6.75H10.2A1.2,1.2,0,0,0,9,7.948V17.53a1.2,1.2,0,0,0,1.2,1.2h1.2a1.2,1.2,0,0,0,1.2-1.2V7.948A1.2,1.2,0,0,0,11.4,6.75Z" transform="translate(-9 -6.75)" fill="url(#linear-gradient)"/>
    <path id="패스_8204" data-name="패스 8204" d="M22.646,6.75h-1.2a1.2,1.2,0,0,0-1.2,1.2V17.53a1.2,1.2,0,0,0,1.2,1.2h1.2a1.2,1.2,0,0,0,1.2-1.2V7.948A1.2,1.2,0,0,0,22.646,6.75Z" transform="translate(-14.261 -6.75)" fill="url(#linear-gradient)"/>
  </g>
</svg>
