<svg id="icon_dark" xmlns="http://www.w3.org/2000/svg" xmlns:xlink="http://www.w3.org/1999/xlink" width="13.282" height="14.875" viewBox="0 0 13.282 14.875">
  <defs>
    <linearGradient id="linear-gradient" x1="0.908" y1="0.933" x2="0.175" y2="0.069" gradientUnits="objectBoundingBox">
      <stop offset="0" stop-color="#575f6b"/>
      <stop offset="1" stop-color="#2c3036"/>
    </linearGradient>
    <clipPath id="clip-path">
      <rect id="사각형_2608" data-name="사각형 2608" width="13.282" height="14.875" stroke="rgba(0,0,0,0)" stroke-miterlimit="10" stroke-width="1" fill="url(#linear-gradient)"/>
    </clipPath>
  </defs>
  <g id="그룹_4506" data-name="그룹 4506" clip-path="url(#clip-path)">
    <path id="패스_9300" data-name="패스 9300" d="M13.148,11.157a.774.774,0,0,0-.863-.4A4.852,4.852,0,0,1,6.541,5.944,4.882,4.882,0,0,1,8.965,1.726.888.888,0,0,0,9.4.83a.879.879,0,0,0-.7-.7A6.889,6.889,0,0,0,7.371,0,7.332,7.332,0,0,0,3.652,1.03,7.624,7.624,0,0,0,1,3.686a7.565,7.565,0,0,0,0,7.5,7.632,7.632,0,0,0,2.656,2.656,7.331,7.331,0,0,0,3.719,1.029,6.953,6.953,0,0,0,3.154-.73,7.083,7.083,0,0,0,2.557-2.025.785.785,0,0,0,.066-.963M7.371,13.813a6.2,6.2,0,0,1-4.449-1.859,6.412,6.412,0,0,1,0-9.032A6.2,6.2,0,0,1,7.371,1.063c.176,0,.375.012.6.032A6.243,6.243,0,0,0,6.142,3.22a5.762,5.762,0,0,0-.664,2.724A5.907,5.907,0,0,0,6.043,8.5a5.972,5.972,0,0,0,1.594,2.058,5.839,5.839,0,0,0,4.25,1.3,6.156,6.156,0,0,1-4.516,1.959" stroke="rgba(0,0,0,0)" stroke-miterlimit="10" stroke-width="1" fill="url(#linear-gradient)"/>
  </g>
</svg>
