<svg id="icon_savefile_master" xmlns="http://www.w3.org/2000/svg" xmlns:xlink="http://www.w3.org/1999/xlink" width="80" height="80" viewBox="0 0 80 80">
  <defs>
    <clipPath id="clip-path">
      <rect id="사각형_2497" data-name="사각형 2497" width="80" height="80" fill="none"/>
    </clipPath>
    <filter id="패스_9176">
      <feOffset dy="3" input="SourceAlpha"/>
      <feGaussianBlur stdDeviation="3" result="blur"/>
      <feFlood flood-opacity="0.161" result="color"/>
      <feComposite operator="out" in="SourceGraphic" in2="blur"/>
      <feComposite operator="in" in="color"/>
      <feComposite operator="in" in2="SourceGraphic"/>
    </filter>
  </defs>
  <g id="그룹_4368" data-name="그룹 4368" clip-path="url(#clip-path)">
    <path id="패스_9177" data-name="패스 9177" d="M46.831,7.978H36.094V33.509a12.134,12.134,0,0,1-12.12,12.12H10v7.754a8.88,8.88,0,0,0,8.88,8.88H46.831a8.882,8.882,0,0,0,8.883-8.88V16.858a8.882,8.882,0,0,0-8.883-8.88" transform="translate(18.571 14.816)" fill="rgba(141,146,155,0.1)"/>
    <path id="패스_9178" data-name="패스 9178" d="M16.506,19.965a8.861,8.861,0,0,1-1.614.163,8.861,8.861,0,0,0,1.614-.163" transform="translate(27.657 37.078)" fill="#fff"/>
    <path id="패스_9179" data-name="패스 9179" d="M17.509,19.493l0,0a8.757,8.757,0,0,1-1.357.737,8.606,8.606,0,0,0,1.354-.734" transform="translate(30.002 36.196)" fill="#fff"/>
    <path id="패스_9180" data-name="패스 9180" d="M17.53,18.882c-.129.157-.246.323-.386.469.14-.149.257-.311.386-.469" transform="translate(31.839 35.067)" fill="#fff"/>
    <path id="패스_9181" data-name="패스 9181" d="M18.031,17.625c-.049.209-.123.4-.186.6.063-.2.137-.391.186-.6" transform="translate(33.141 32.732)" fill="#fff"/>
    <path id="패스_9182" data-name="패스 9182" d="M16.727,19.808a9.06,9.06,0,0,1-1.109.343,9.06,9.06,0,0,0,1.109-.343" transform="translate(29.005 36.786)" fill="#fff"/>
    <path id="패스_9183" data-name="패스 9183" d="M17.881,18.284c-.1.2-.209.406-.326.6.117-.2.223-.394.326-.6" transform="translate(32.602 33.956)" fill="#fff"/>
    <g id="그룹_4369" data-name="그룹 4369">
      <g data-type="innerShadowGroup">
        <path id="패스_9176-2" data-name="패스 9176" d="M35.749,13.062V1.022H10.883A8.881,8.881,0,0,0,2,9.9V46.425a8.883,8.883,0,0,0,8.883,8.883H38.834a8.861,8.861,0,0,0,1.614-.163c.154-.029.306-.069.46-.109a8.291,8.291,0,0,0,1.109-.343c.143-.054.289-.106.429-.169a8.186,8.186,0,0,0,2.823-2.006c.14-.149.257-.314.386-.469a9.164,9.164,0,0,0,.789-1.109c.117-.2.223-.4.326-.6a9.2,9.2,0,0,0,.506-1.283c.06-.2.137-.394.186-.6a8.834,8.834,0,0,0,.254-2.034V13.062Z" transform="translate(3.714 1.898)" fill="#6d7587"/>
        <g transform="matrix(1, 0, 0, 1, 0, 0)" filter="url(#패스_9176)">
          <path id="패스_9176-3" data-name="패스 9176" d="M35.749,13.062V1.022H10.883A8.881,8.881,0,0,0,2,9.9V46.425a8.883,8.883,0,0,0,8.883,8.883H38.834a8.861,8.861,0,0,0,1.614-.163c.154-.029.306-.069.46-.109a8.291,8.291,0,0,0,1.109-.343c.143-.054.289-.106.429-.169a8.186,8.186,0,0,0,2.823-2.006c.14-.149.257-.314.386-.469a9.164,9.164,0,0,0,.789-1.109c.117-.2.223-.4.326-.6a9.2,9.2,0,0,0,.506-1.283c.06-.2.137-.394.186-.6a8.834,8.834,0,0,0,.254-2.034V13.062Z" transform="translate(3.71 1.9)" fill="#fff"/>
        </g>
      </g>
      <path id="패스_9184" data-name="패스 9184" d="M14.946,1.038V9.789h8.717l-.006-.04Z" transform="translate(27.757 1.928)" fill="#575f6b"/>
    </g>
    <path id="패스_9185" data-name="패스 9185" d="M18,4.087l0,.04h.037Z" transform="translate(33.421 7.59)"/>
    <path id="패스_9186" data-name="패스 9186" d="M27.624,21.149a.878.878,0,0,1-.881.881H22.636L26.807,26.2a.852.852,0,0,1,0,1.212.9.9,0,0,1-1.246.036l-4.173-4.173v4.107a.882.882,0,1,1-1.764,0V21.149a.88.88,0,0,1,.881-.881h6.238a.88.88,0,0,1,.881.881" transform="translate(38.445 40.641)" fill="#a0a6ad"/>
  </g>
  <path id="패스_51200" data-name="패스 51200" d="M12.8,14.156a.793.793,0,0,0,.792-.828.794.794,0,1,0-1.584,0A.793.793,0,0,0,12.8,14.156ZM16.182,14H17.3V6.14h2.664V5.192H13.518V6.14h2.664Zm4.092,0h1.164l1.272-2.376c.228-.444.456-.888.708-1.416h.048c.288.528.528.972.756,1.416L25.518,14h1.224L24.174,9.512l2.4-4.32H25.41L24.234,7.448c-.216.408-.384.78-.624,1.284h-.048c-.288-.5-.468-.876-.7-1.284l-1.2-2.256H20.442l2.4,4.26Zm9.444,0h1.116V6.14H33.5V5.192H27.054V6.14h2.664Z" transform="translate(6 28)" fill="#fff"/>
</svg>
