<svg width="20" height="20" viewBox="0 0 20 20" fill="none" xmlns="http://www.w3.org/2000/svg">
<g id="&#235;&#178;&#136;&#236;&#151;&#173;">
<g id="&#235;&#178;&#136;&#236;&#151;&#173;_2">
<path id="Vector" d="M9.5 5V15H2C1.44687 15 1 14.5531 1 14V6C1 5.44687 1.44687 5 2 5H9.5ZM10.5 5H18C18.5531 5 19 5.44687 19 6V14C19 14.5531 18.5531 15 18 15H10.5V5ZM20 6C20 4.89688 19.1031 4 18 4H2C0.896875 4 0 4.89688 0 6V14C0 15.1031 0.896875 16 2 16H18C19.1031 16 20 15.1031 20 14V6ZM5.46562 7.31563C5.3875 7.125 5.20312 7 5 7C4.79688 7 4.6125 7.125 4.53438 7.31563L2.53437 12.3156C2.43125 12.5719 2.55625 12.8625 2.8125 12.9656C3.06875 13.0687 3.35938 12.9438 3.4625 12.6875L3.7375 12.0031H6.25938L6.53438 12.6875C6.6375 12.9438 6.92812 13.0687 7.18437 12.9656C7.44062 12.8625 7.56563 12.5719 7.4625 12.3156L5.4625 7.31563H5.46562ZM5 8.84688L5.8625 11H4.1375L5 8.84688ZM15.5 7.5C15.5 7.225 15.275 7 15 7C14.725 7 14.5 7.225 14.5 7.5V8H12.5C12.225 8 12 8.225 12 8.5C12 8.775 12.225 9 12.5 9H15H16.2875L16.2812 9.01875C16.025 9.725 15.6125 10.3594 15.0875 10.875L15.0625 10.85L14.3562 10.1438C14.1625 9.95 13.8438 9.95 13.65 10.1438C13.4562 10.3375 13.4562 10.6563 13.65 10.85L14.3031 11.5031C14.1469 11.6031 13.9875 11.6969 13.8188 11.7781L13.2781 12.0469C13.0312 12.1719 12.9313 12.4719 13.0531 12.7188C13.175 12.9656 13.4781 13.0656 13.725 12.9438L14.2656 12.675C14.55 12.5312 14.8219 12.3687 15.0781 12.1844C15.2625 12.3219 15.4563 12.4531 15.6531 12.5719L16.2437 12.925C16.4812 13.0656 16.7875 12.9906 16.9281 12.7531C17.0688 12.5156 16.9937 12.2094 16.7563 12.0688L16.1656 11.7156C16.0594 11.6531 15.9563 11.5875 15.8562 11.5156C16.4531 10.9094 16.9219 10.175 17.2188 9.35938L17.35 8.99687H17.5C17.775 8.99687 18 8.77187 18 8.49687C18 8.22187 17.775 7.99687 17.5 7.99687H17H15.5V7.5Z" fill="#333333"/>
</g>
</g>
</svg>
