<svg id="checkbox_1" xmlns="http://www.w3.org/2000/svg" xmlns:xlink="http://www.w3.org/1999/xlink" width="16" height="16" viewBox="0 0 16 16">
  <defs>
    <linearGradient id="linear-gradient" x1="0.944" y1="0.903" x2="0.062" y2="0.056" gradientUnits="objectBoundingBox">
      <stop offset="0" stop-color="#5a7eff"/>
      <stop offset="0.51" stop-color="#335fff"/>
      <stop offset="1" stop-color="#1b3bef"/>
    </linearGradient>
  </defs>
  <g id="그룹_4084" data-name="그룹 4084">
    <rect id="사각형_133" data-name="사각형 133" width="16" height="16" rx="4" fill="url(#linear-gradient)"/>
  </g>
  <path id="check" d="M3.635,72.673.157,69.306a.507.507,0,0,1,0-.733l.757-.733a.548.548,0,0,1,.757,0l2.343,2.269L9.033,65.25a.548.548,0,0,1,.757,0l.757.733a.507.507,0,0,1,0,.733L4.392,72.673a.548.548,0,0,1-.757,0Z" transform="translate(2.698 -61.223)" fill="#fff"/>
</svg>
