<?xml version="1.0" encoding="UTF-8"?><svg id="_레이어_2" xmlns="http://www.w3.org/2000/svg" viewBox="0 0 20 10.00215"><defs><style>.cls-1{fill:#575f6b;}</style></defs><g id="_레이어_1-2"><path id="_패스_50913" class="cls-1" d="M15.466,.00002c-1.20323-.00376-2.35786,.47451-3.206,1.328l-2.26,2.26L7.744,1.32802c-1.77244-1.77118-4.64511-1.77015-6.41629,.00229C.47836,2.18026,.00087,3.33243,0,4.53402v.93c-.00053,2.50406,2.02899,4.53443,4.53304,4.53496,1.2033,.00025,2.35735-.47783,3.20796-1.32896l2.259-2.254,2.257,2.258c1.77166,1.77118,4.6437,1.77079,6.41487-.00087,.85043-.85066,1.32816-2.00428,1.32813-3.20713v-.93C19.9978,2.03255,17.96947,.00333,15.466,.00002ZM6.328,7.25902c-.99104,.98969-2.59675,.9886-3.58644-.00244-.47449-.47514-.74117-1.11907-.74156-1.79056v-.93c.00025-1.40059,1.13585-2.5358,2.53645-2.53555,.67233,.00012,1.31709,.26721,1.79255,.74255l2.257,2.258-2.258,2.258Zm11.672-1.793c-.00025,1.40059-1.13585,2.5358-2.53644,2.53555-.67233-.00012-1.31709-.26721-1.79256-.74255l-2.257-2.258,2.257-2.258c.99049-.99025,2.5962-.99005,3.58644,.00044,.47486,.47498,.74191,1.11892,.74256,1.79056v.932Z"/></g></svg>