<svg width="18" height="18" viewBox="0 0 18 18" fill="none" xmlns="http://www.w3.org/2000/svg">
<g id="share" clip-path="url(#clip0_215_478)">
<path id="Vector" d="M3.38493 12.3896C1.51481 12.3896 0 10.8655 0 9.00469C0 7.14391 1.52416 5.61975 3.38493 5.61975C5.24571 5.61975 6.76987 7.14391 6.76987 9.00469C6.76987 10.8655 5.24571 12.3896 3.38493 12.3896ZM3.38493 6.77923C2.16 6.77923 1.15948 7.77975 1.15948 9.00469C1.15948 10.2296 2.16 11.2301 3.38493 11.2301C4.60987 11.2301 5.61039 10.2296 5.61039 9.00469C5.61039 7.77975 4.60987 6.77923 3.38493 6.77923Z" fill="#575F6B"/>
<path id="Vector_2" d="M14.6057 6.77921C12.7356 6.77921 11.2208 5.25505 11.2208 3.39427C11.2208 1.53349 12.7449 0.00933838 14.6057 0.00933838C16.4665 0.00933838 17.9906 1.53349 17.9906 3.39427C17.9906 5.25505 16.4665 6.77921 14.6057 6.77921ZM14.6057 1.16882C13.3808 1.16882 12.3802 2.16934 12.3802 3.39427C12.3802 4.61921 13.3808 5.61973 14.6057 5.61973C15.8306 5.61973 16.8312 4.61921 16.8312 3.39427C16.8312 2.16934 15.8306 1.16882 14.6057 1.16882Z" fill="#575F6B"/>
<path id="Vector_3" d="M14.6057 18C12.7356 18 11.2208 16.4758 11.2208 14.615C11.2208 12.7543 12.7449 11.2301 14.6057 11.2301C16.4665 11.2301 17.9906 12.7543 17.9906 14.615C17.9906 16.4758 16.4665 18 14.6057 18ZM14.6057 12.3896C13.3808 12.3896 12.3802 13.3901 12.3802 14.615C12.3802 15.84 13.3808 16.8405 14.6057 16.8405C15.8306 16.8405 16.8312 15.84 16.8312 14.615C16.8312 13.3901 15.8306 12.3896 14.6057 12.3896Z" fill="#575F6B"/>
<path id="Vector_4" d="M5.91897 8.36885C5.7039 8.36885 5.49819 8.25664 5.39533 8.05093C5.24572 7.76105 5.35793 7.41508 5.6478 7.26547L11.8192 4.08625C12.1091 3.93664 12.4551 4.04885 12.6047 4.33872C12.7543 4.62859 12.6421 4.97456 12.3522 5.12417L6.18079 8.30339C6.09663 8.35015 6.00312 8.36885 5.90962 8.36885H5.91897Z" fill="#575F6B"/>
<path id="Vector_5" d="M12.0811 13.9792C11.9876 13.9792 11.9034 13.9605 11.8099 13.9137L5.63846 10.7345C5.34859 10.5849 5.23638 10.2296 5.38599 9.94907C5.5356 9.6592 5.89093 9.54699 6.17145 9.6966L12.3429 12.8758C12.6327 13.0254 12.745 13.3808 12.5953 13.6613C12.4925 13.867 12.2868 13.9792 12.0717 13.9792H12.0811Z" fill="#575F6B"/>
</g>
<defs>
<clipPath id="clip0_215_478">
<rect width="18" height="18" fill="white"/>
</clipPath>
</defs>
</svg>
