<svg width="19" height="17" viewBox="0 0 19 17" fill="none" xmlns="http://www.w3.org/2000/svg">
<g id="send" clip-path="url(#clip0_121_868)">
<path id="Vector" d="M1.96001 0.120832L17.5 6.87792C18.06 7.18003 18.34 7.62311 18.34 8.18704C18.34 8.75097 18.06 9.19406 17.5 9.49617L1.96001 16.2633C1.30001 16.4949 0.780014 16.3942 0.380014 15.9411C-0.0399858 15.4678 -0.109986 14.924 0.170014 14.3097L2.60001 9.73785C2.76001 9.43575 3.02001 9.25448 3.37001 9.20413L9.56001 8.42873C9.70002 8.40859 9.77001 8.31796 9.77001 8.17697C9.77001 8.03599 9.70002 7.95543 9.56001 7.92522L3.37001 7.14982C3.02001 7.09946 2.76001 6.92827 2.60001 6.6161L0.170014 2.10466C-0.109986 1.47024 -0.0399858 0.916376 0.380014 0.443078C0.780014 -9.75537e-06 1.31001 -0.110782 1.96001 0.120832Z" fill="white"/>
</g>
<defs>
<clipPath id="clip0_121_868">
<rect width="18.34" height="16.3842" fill="white"/>
</clipPath>
</defs>
</svg>
