<svg id="그룹_4275" data-name="그룹 4275" xmlns="http://www.w3.org/2000/svg" xmlns:xlink="http://www.w3.org/1999/xlink" width="20" height="20" viewBox="0 0 20 20">
  <defs>
    <clipPath id="clip-path">
      <rect id="사각형_2438" data-name="사각형 2438" width="20" height="20" fill="#335fff"/>
    </clipPath>
  </defs>
  <g id="그룹_4274" data-name="그룹 4274" clip-path="url(#clip-path)">
    <path id="패스_8992" data-name="패스 8992" d="M13.314,17.656H3.077A2.524,2.524,0,0,1,.555,15.136v-9.1A2.525,2.525,0,0,1,3.077,3.514H13.314a2.524,2.524,0,0,1,2.521,2.522V8.386a.625.625,0,0,1-1.25,0V6.036a1.272,1.272,0,0,0-1.271-1.272H3.077A1.273,1.273,0,0,0,1.8,6.036v9.1a1.273,1.273,0,0,0,1.272,1.271H13.314a1.272,1.272,0,0,0,1.271-1.271V11.681a.625.625,0,0,1,1.25,0v3.454a2.524,2.524,0,0,1-2.521,2.521" transform="translate(-0.093 -0.586)" fill="#335fff"/>
    <path id="패스_8993" data-name="패스 8993" d="M10.306,14.729a.649.649,0,0,1-.144-.017L7.6,14.106a.625.625,0,0,1-.34-1l1.668-2.04a.63.63,0,0,1,.283-.2L19,7.549a.626.626,0,0,1,.792.392l.9,2.648a.625.625,0,0,1-.392.793L10.507,14.7a.633.633,0,0,1-.2.033m-1.448-1.61,1.417.336,9.03-3.058-.5-1.463-9.03,3.058Z" transform="translate(-1.186 -1.253)" fill="#335fff"/>
  </g>
</svg>
