<svg id="icon_logout" xmlns="http://www.w3.org/2000/svg" xmlns:xlink="http://www.w3.org/1999/xlink" width="24" height="24" viewBox="0 0 24 24">
  <defs>
    <clipPath id="clip-path">
      <rect id="사각형_2508" data-name="사각형 2508" width="24" height="24" fill="#a0a6ad"/>
    </clipPath>
  </defs>
  <g id="그룹_4383" data-name="그룹 4383" clip-path="url(#clip-path)">
    <path id="패스_9221" data-name="패스 9221" d="M12,20.75H5A2.753,2.753,0,0,1,2.25,18V6A2.752,2.752,0,0,1,5,3.25h7A2.752,2.752,0,0,1,14.75,6V8a.75.75,0,1,1-1.5,0V6A1.252,1.252,0,0,0,12,4.75H5A1.252,1.252,0,0,0,3.75,6V18A1.252,1.252,0,0,0,5,19.25h7A1.252,1.252,0,0,0,13.25,18V16a.75.75,0,1,1,1.5,0v2A2.753,2.753,0,0,1,12,20.75" transform="translate(0 0)" fill="#a0a6ad"/>
    <path id="패스_9222" data-name="패스 9222" d="M18,15.75a.75.75,0,0,1-.53-1.28l1.719-1.72H7a.75.75,0,1,1,0-1.5H19.189L17.47,9.53a.75.75,0,0,1,1.06-1.06l3,3,0,0h0s-.005,0,0,0a.75.75,0,0,1,.211.464h0a.8.8,0,0,1-.005.162.74.74,0,0,1-.176.387h0a.272.272,0,0,1-.04.043l-3,3a.744.744,0,0,1-.53.22" transform="translate(0 0)" fill="#a0a6ad"/>
  </g>
</svg>
