<svg id="icon_내보내기16px" xmlns="http://www.w3.org/2000/svg" xmlns:xlink="http://www.w3.org/1999/xlink" width="16" height="16" viewBox="0 0 16 16">
  <defs>
    <clipPath id="clip-path">
      <rect id="사각형_2667" data-name="사각형 2667" width="16" height="16" fill="none"/>
    </clipPath>
  </defs>
  <g id="그룹_17114" data-name="그룹 17114" clip-path="url(#clip-path)">
    <path id="패스_9376" data-name="패스 9376" d="M14.125,10.66v1.969A2.614,2.614,0,0,1,11.5,15.254h-7a2.617,2.617,0,0,1-2.626-2.625V10.66a.657.657,0,0,1,1.314,0v1.969a1.415,1.415,0,0,0,.383.93,1.428,1.428,0,0,0,.929.382h7a1.306,1.306,0,0,0,1.313-1.312V10.66a.656.656,0,1,1,1.312,0M3.844,4.918a.645.645,0,0,0-.027.93.613.613,0,0,0,.9.027L7.344,3.441v6.782A.653.653,0,0,0,8,10.879a.643.643,0,0,0,.656-.629V3.441l2.625,2.434a.614.614,0,0,0,.9-.027.6.6,0,0,0-.027-.9l-3.719-3.5a.594.594,0,0,0-.875,0Z" fill="#575f6b"/>
  </g>
</svg>
