<svg width="20" height="20" viewBox="0 0 20 20" fill="none" xmlns="http://www.w3.org/2000/svg">
<g clip-path="url(#clip0_15_730)">
<path d="M6.26087 9C7.20972 9 8.11971 8.63125 8.79064 7.97487C9.46158 7.3185 9.83851 6.42826 9.83851 5.5C9.83851 4.57174 9.46158 3.6815 8.79064 3.02513C8.11971 2.36875 7.20972 2 6.26087 2C5.31202 2 4.40203 2.36875 3.7311 3.02513C3.06016 3.6815 2.68323 4.57174 2.68323 5.5C2.68323 6.42826 3.06016 7.3185 3.7311 7.97487C4.40203 8.63125 5.31202 9 6.26087 9ZM4.98354 10.3125C2.23043 10.3125 0 12.4945 0 15.1879C0 15.6363 0.371739 16 0.830124 16H11.6916C12.15 16 12.5217 15.6363 12.5217 15.1879C12.5217 12.4945 10.2913 10.3125 7.5382 10.3125H4.98354Z" fill="#335fff"/>
</g>
<g clip-path="url(#clip1_15_730)">
<path d="M14.7826 9.875C15.5733 9.875 16.3316 9.55234 16.8908 8.97801C17.4499 8.40368 17.764 7.62473 17.764 6.8125C17.764 6.00027 17.4499 5.22132 16.8908 4.64699C16.3316 4.07266 15.5733 3.75 14.7826 3.75C13.9919 3.75 13.2336 4.07266 12.6745 4.64699C12.1153 5.22132 11.8012 6.00027 11.8012 6.8125C11.8012 7.62473 12.1153 8.40368 12.6745 8.97801C13.2336 9.55234 13.9919 9.875 14.7826 9.875ZM13.7182 11.0234C11.4239 11.0234 9.56522 12.9327 9.56522 15.2894C9.56522 15.6818 9.875 16 10.257 16H19.3082C19.6902 16 20 15.6818 20 15.2894C20 12.9327 18.1413 11.0234 15.847 11.0234H13.7182Z" fill="#335fff"/>
</g>
<defs>
<clipPath id="clip0_15_730">
<rect width="12.5217" height="14" fill="#335fff" transform="translate(0 2)"/>
</clipPath>
<clipPath id="clip1_15_730">
<rect width="10.4348" height="12.25" fill="#335fff" transform="translate(9.56522 3.75)"/>
</clipPath>
</defs>
</svg>
