<svg id="icon_.down" xmlns="http://www.w3.org/2000/svg" xmlns:xlink="http://www.w3.org/1999/xlink" width="24" height="24" viewBox="0 0 24 24">
  <defs>
    <clipPath id="clip-path">
      <rect id="사각형_26342" data-name="사각형 26342" width="24" height="24" fill="none"/>
    </clipPath>
  </defs>
  <g id="그룹_19055" data-name="그룹 19055" clip-path="url(#clip-path)">
    <path id="패스_50975" data-name="패스 50975" d="M18.749,13.688A2.281,2.281,0,0,1,21,15.938V18.75A2.281,2.281,0,0,1,18.749,21H5.25A2.28,2.28,0,0,1,3,18.75V15.938a2.28,2.28,0,0,1,2.25-2.25h1.9l1.686,1.687H5.25a.541.541,0,0,0-.562.563V18.75a.541.541,0,0,0,.562.563h13.5a.543.543,0,0,0,.564-.563V15.938a.543.543,0,0,0-.564-.563H15.2l1.686-1.687ZM11.4,15.938,6.585,11.192a.846.846,0,0,1,1.2-1.2l3.375,3.34V3.844a.844.844,0,1,1,1.688,0v9.492L16.183,10a.845.845,0,0,1,1.195,1.2L12.6,15.973a.813.813,0,0,1-.6.246.765.765,0,0,1-.6-.281m6.785,1.406a.844.844,0,1,1-.845-.844.842.842,0,0,1,.845.844" fill="#575f6b"/>
  </g>
</svg>
