<svg id="icon_새창분리" xmlns="http://www.w3.org/2000/svg" xmlns:xlink="http://www.w3.org/1999/xlink" width="20" height="20" viewBox="0 0 20 20">
  <defs>
    <clipPath id="clip-path">
      <rect id="사각형_23879" data-name="사각형 23879" width="20" height="20" fill="none"/>
    </clipPath>
  </defs>
  <g id="그룹_18500" data-name="그룹 18500" clip-path="url(#clip-path)">
    <path id="패스_9446" data-name="패스 9446" d="M9.3,17.493c-1.75,0-3.5,0-5.249,0a2.92,2.92,0,0,1-2.893-2.369,2.793,2.793,0,0,1-.054-.581q0-5.24,0-10.479A2.918,2.918,0,0,1,4.057,1.1q2.6-.006,5.195,0a.585.585,0,0,1,.354,1.079.713.713,0,0,1-.4.091q-2.57,0-5.139,0A1.752,1.752,0,0,0,2.328,3.6a1.918,1.918,0,0,0-.056.488q0,5.211,0,10.423a1.752,1.752,0,0,0,1.814,1.81q5.213,0,10.425,0a1.751,1.751,0,0,0,1.809-1.814c0-1.72,0-3.438,0-5.158a.584.584,0,0,1,.779-.6.574.574,0,0,1,.389.507,1.312,1.312,0,0,1,0,.147q0,2.552,0,5.1a2.921,2.921,0,0,1-2.981,2.989q-2.607,0-5.213,0" transform="translate(0.703 0.703)" fill="#575f6b"/>
    <path id="패스_9447" data-name="패스 9447" d="M16.106,2.291a.324.324,0,0,0-.179-.017h-2.4a.588.588,0,1,1,0-1.17H17.5a.585.585,0,0,1,.647.645q0,1.984,0,3.968a.589.589,0,1,1-1.171,0c0-.853,0-1.706,0-2.572-.087.019-.124.086-.172.134q-3.189,3.186-6.374,6.374a.607.607,0,0,1-.674.2A.582.582,0,0,1,9.5,8.92a1.7,1.7,0,0,1,.127-.131l6.35-6.348c.045-.044.1-.079.126-.15" transform="translate(0.05 0.703)" fill="#575f6b"/>
  </g>
</svg>
