<svg id="icon_라이센스" xmlns="http://www.w3.org/2000/svg" xmlns:xlink="http://www.w3.org/1999/xlink" width="20" height="20" viewBox="0 0 20 20">
  <defs>
    <clipPath id="clip-path">
      <rect id="사각형_23961" data-name="사각형 23961" width="20" height="20" fill="#686d75"/>
    </clipPath>
  </defs>
  <g id="그룹_18573" data-name="그룹 18573" clip-path="url(#clip-path)">
    <path id="패스_50693" data-name="패스 50693" d="M16.75,8.075a1.74,1.74,0,0,1-.387.949,2.038,2.038,0,0,0-.351.668,2.75,2.75,0,0,0-.035.774,1.693,1.693,0,0,1-.141.984,1.793,1.793,0,0,1-.809.6,2.965,2.965,0,0,0-.632.422,2.91,2.91,0,0,0-.422.633,1.79,1.79,0,0,1-.6.808,1.685,1.685,0,0,1-.984.141,1.7,1.7,0,0,0-.774.035,2.022,2.022,0,0,0-.668.352,1.746,1.746,0,0,1-.949.386,1.746,1.746,0,0,1-.949-.386,2.022,2.022,0,0,0-.668-.352,2.748,2.748,0,0,0-.774-.035,1.685,1.685,0,0,1-.984-.141,1.79,1.79,0,0,1-.6-.808,2.91,2.91,0,0,0-.422-.633,2.7,2.7,0,0,0-.667-.422,1.816,1.816,0,0,1-.774-.6,1.685,1.685,0,0,1-.141-.984,1.688,1.688,0,0,0-.035-.774,2.038,2.038,0,0,0-.351-.668,1.74,1.74,0,0,1-.387-.949,1.743,1.743,0,0,1,.387-.949,2.038,2.038,0,0,0,.351-.668,1.683,1.683,0,0,0,.035-.773A1.69,1.69,0,0,1,4.164,4.7a1.785,1.785,0,0,1,.809-.6,3,3,0,0,0,.632-.422,2.185,2.185,0,0,0,.387-.633,1.7,1.7,0,0,1,.633-.809,1.693,1.693,0,0,1,.984-.14,1.7,1.7,0,0,0,.774-.035,2.06,2.06,0,0,0,.668-.352A1.756,1.756,0,0,1,10,1.325a1.756,1.756,0,0,1,.949.387,2.06,2.06,0,0,0,.668.352,2.825,2.825,0,0,0,.774.035,1.693,1.693,0,0,1,.984.14,1.793,1.793,0,0,1,.6.809,2.959,2.959,0,0,0,.422.633,3,3,0,0,0,.632.422,1.785,1.785,0,0,1,.809.6,1.7,1.7,0,0,1,.141.985,1.683,1.683,0,0,0,.035.773,2.038,2.038,0,0,0,.351.668,1.743,1.743,0,0,1,.387.949M14.922,9.411a2.745,2.745,0,0,1,.492-1.019.882.882,0,0,0,.176-.317.871.871,0,0,0-.176-.316,2.766,2.766,0,0,1-.492-.985,3.37,3.37,0,0,1-.07-1.16V5.263a1.389,1.389,0,0,0-.317-.141,4.119,4.119,0,0,1-.949-.633,3.889,3.889,0,0,1-.633-.984,1.624,1.624,0,0,0-.14-.281h-.352a3.373,3.373,0,0,1-1.16-.071,3.815,3.815,0,0,1-.985-.492A1.819,1.819,0,0,0,10,2.45a1.819,1.819,0,0,0-.316.211,3.729,3.729,0,0,1-1.02.492,3.153,3.153,0,0,1-1.125.071H7.187a1.407,1.407,0,0,0-.14.316,4.185,4.185,0,0,1-.633.949,4.119,4.119,0,0,1-.949.633,1.389,1.389,0,0,0-.317.141v.351a3.37,3.37,0,0,1-.07,1.16,3.847,3.847,0,0,1-.492.985,1.819,1.819,0,0,0-.211.316,1.861,1.861,0,0,0,.211.317,3.736,3.736,0,0,1,.492,1.019,3.151,3.151,0,0,1,.07,1.125v.352c.094.047.2.105.317.176a3.318,3.318,0,0,1,.949.6,3.876,3.876,0,0,1,.633.985,1.624,1.624,0,0,0,.14.281h.352A3.151,3.151,0,0,1,8.664,13a3.788,3.788,0,0,1,1.02.492A1.819,1.819,0,0,0,10,13.7a1.819,1.819,0,0,0,.316-.211A3.879,3.879,0,0,1,11.3,13a3.37,3.37,0,0,1,1.16-.07h.352a1.418,1.418,0,0,0,.14-.317,4.207,4.207,0,0,1,.633-.949,4.185,4.185,0,0,1,.949-.633c.117-.047.223-.093.317-.14v-.352a3.1,3.1,0,0,1,.07-1.125m-.984,5.977.527,2.636a1.027,1.027,0,0,1-.387,1.09,1.181,1.181,0,0,1-.668.211.814.814,0,0,1-.457-.14L10,17.708,7.082,19.22a1.09,1.09,0,0,1-1.16-.106,1.027,1.027,0,0,1-.387-1.09l.527-2.636a.61.61,0,0,1,.668-.457.609.609,0,0,1,.457.668l-.562,2.636,3.129-1.617a.464.464,0,0,1,.492,0l3.2,1.582-.632-2.6a.572.572,0,0,1,1.125-.211M10,4.982a3.084,3.084,0,0,1,2.18.914,3.157,3.157,0,0,1,.879,2.179,3.121,3.121,0,0,1-3.094,3.094,2.963,2.963,0,0,1-2.145-.914A3.094,3.094,0,0,1,10,4.982m0,5.062a1.978,1.978,0,0,0,1.371-.562,1.909,1.909,0,0,0,.563-1.407,2.038,2.038,0,0,0-.6-1.406,1.951,1.951,0,0,0-2.742,0,2.038,2.038,0,0,0,0,2.813A2.112,2.112,0,0,0,10,10.044" fill="#686d75"/>
  </g>
</svg>
