<svg width="18" height="18" viewBox="0 0 18 18" fill="none" xmlns="http://www.w3.org/2000/svg">
<g id="share" clip-path="url(#clip0_218_1007)">
<path id="Vector" d="M3.38493 12.3896C1.51481 12.3896 0 10.8654 0 9.00467C0 7.14389 1.52416 5.61974 3.38493 5.61974C5.24571 5.61974 6.76987 7.14389 6.76987 9.00467C6.76987 10.8654 5.24571 12.3896 3.38493 12.3896ZM3.38493 6.77922C2.16 6.77922 1.15948 7.77974 1.15948 9.00467C1.15948 10.2296 2.16 11.2301 3.38493 11.2301C4.60987 11.2301 5.61039 10.2296 5.61039 9.00467C5.61039 7.77974 4.60987 6.77922 3.38493 6.77922Z" fill="#8D929B"/>
<path id="Vector_2" d="M14.6057 6.77922C12.7356 6.77922 11.2208 5.25507 11.2208 3.39429C11.2208 1.53351 12.7449 0.00935364 14.6057 0.00935364C16.4665 0.00935364 17.9906 1.53351 17.9906 3.39429C17.9906 5.25507 16.4665 6.77922 14.6057 6.77922ZM14.6057 1.16883C13.3808 1.16883 12.3802 2.16935 12.3802 3.39429C12.3802 4.61922 13.3808 5.61974 14.6057 5.61974C15.8306 5.61974 16.8312 4.61922 16.8312 3.39429C16.8312 2.16935 15.8306 1.16883 14.6057 1.16883Z" fill="#8D929B"/>
<path id="Vector_3" d="M14.6057 18C12.7356 18 11.2208 16.4758 11.2208 14.6151C11.2208 12.7543 12.7449 11.2301 14.6057 11.2301C16.4665 11.2301 17.9906 12.7543 17.9906 14.6151C17.9906 16.4758 16.4665 18 14.6057 18ZM14.6057 12.3896C13.3808 12.3896 12.3802 13.3901 12.3802 14.6151C12.3802 15.84 13.3808 16.8405 14.6057 16.8405C15.8306 16.8405 16.8312 15.84 16.8312 14.6151C16.8312 13.3901 15.8306 12.3896 14.6057 12.3896Z" fill="#8D929B"/>
<path id="Vector_4" d="M5.91897 8.36883C5.7039 8.36883 5.49819 8.25662 5.39533 8.05091C5.24572 7.76104 5.35793 7.41507 5.6478 7.26546L11.8192 4.08623C12.1091 3.93662 12.4551 4.04883 12.6047 4.3387C12.7543 4.62857 12.6421 4.97455 12.3522 5.12416L6.18079 8.30338C6.09663 8.35013 6.00312 8.36883 5.90962 8.36883H5.91897Z" fill="#8D929B"/>
<path id="Vector_5" d="M12.0811 13.9792C11.9876 13.9792 11.9034 13.9605 11.8099 13.9138L5.63846 10.7345C5.34859 10.5849 5.23638 10.2296 5.38599 9.94908C5.5356 9.65921 5.89093 9.54701 6.17145 9.69662L12.3429 12.8758C12.6327 13.0254 12.745 13.3808 12.5953 13.6613C12.4925 13.867 12.2868 13.9792 12.0717 13.9792H12.0811Z" fill="#8D929B"/>
</g>
<defs>
<clipPath id="clip0_218_1007">
<rect width="18" height="18" fill="white"/>
</clipPath>
</defs>
</svg>
