<svg xmlns="http://www.w3.org/2000/svg" xmlns:xlink="http://www.w3.org/1999/xlink" width="18" height="18" viewBox="0 0 18 18">
  <defs>
    <clipPath id="clip-path">
      <rect id="사각형_29212" data-name="사각형 29212" width="18" height="18" fill="#D4D7E3"/>
    </clipPath>
  </defs>
  <g id="그룹_28270" data-name="그룹 28270" clip-path="url(#clip-path)">
    <path id="패스_85670" data-name="패스 85670" d="M6.187,1.969V3.375h5.625V1.969a.469.469,0,1,1,.938,0V3.375h.937A1.9,1.9,0,0,1,15.562,5.25v9.375A1.9,1.9,0,0,1,13.687,16.5H4.312a1.9,1.9,0,0,1-1.875-1.875V5.25A1.9,1.9,0,0,1,4.312,3.375H5.25V1.969a.469.469,0,1,1,.937,0M4.312,4.312a.9.9,0,0,0-.937.938v.937h11.25V5.25a.9.9,0,0,0-.938-.938Zm2.11,2.813H3.375V9.234H6.422Zm0,3.047H3.375v2.344H6.422ZM3.375,14.625a.9.9,0,0,0,.937.937h2.11V13.453H3.375Zm7.266-7.5H7.36V9.234h3.281Zm0,3.047H7.36v2.344h3.281Zm0,3.281H7.36v2.109h3.281Zm.937-4.219h3.047V7.125H11.578Zm0,3.282h3.047V10.172H11.578Zm0,.937v2.109h2.109a.9.9,0,0,0,.938-.937V13.453Z" fill="#D4D7E3"/>
  </g>
</svg>
