<svg width="16" height="16" viewBox="0 0 16 16" fill="none" xmlns="http://www.w3.org/2000/svg">
<g id="icon_&#236;&#136;&#152;&#236;&#160;&#149;" clip-path="url(#clip0_150_862)">
<path id="Vector" d="M12.9 0C13.36 0 13.76 0.17 14.12 0.5L15.46 1.84C15.79 2.2 15.96 2.6 15.96 3.06C15.96 3.54 15.79 3.96 15.46 4.31L5.67999 14.09C5.32999 14.44 4.90999 14.69 4.42999 14.84L0.649991 15.93C0.439991 15.97 0.269991 15.93 0.149991 15.81C-8.88109e-06 15.69 -0.0400089 15.53 0.0299911 15.34L1.11999 11.56C1.26999 11.06 1.51999 10.63 1.86999 10.28L11.65 0.5C12 0.17 12.42 0 12.9 0ZM2.08999 11.84L1.24999 14.72L4.12999 13.88C4.22999 13.86 4.33999 13.83 4.43999 13.79L2.90999 13.48C2.69999 13.42 2.56999 13.28 2.49999 13.07L2.21999 11.54C2.15999 11.65 2.11999 11.75 2.09999 11.85L2.08999 11.84ZM5.39999 12.93L12.31 6.02L9.92999 3.61L3.01999 10.55L3.42999 12.52L5.39999 12.93ZM12.37 1.22L10.65 2.91L13.06 5.29L14.75 3.6C15.04 3.25 15.04 2.89 14.75 2.54L13.44 1.23C13.09 0.94 12.73 0.94 12.38 1.23L12.37 1.22Z" fill="#8d929b"/>
</g>
<defs>
<clipPath id="clip0_150_862">
<rect width="15.97" height="15.95" fill="white"/>
</clipPath>
</defs>
</svg>
