<svg xmlns="http://www.w3.org/2000/svg" xmlns:xlink="http://www.w3.org/1999/xlink" width="16" height="16" viewBox="0 0 16 16">
  <defs>
    <clipPath id="clip-path">
      <rect id="사각형_2668" data-name="사각형 2668" width="16" height="16" fill="none"/>
    </clipPath>
  </defs>
  <g id="그룹_17107" data-name="그룹 17107" transform="translate(-5.833)">
    <g id="icon_불러오기16px" transform="translate(5.833)">
      <g id="그룹_17115" data-name="그룹 17115" clip-path="url(#clip-path)">
        <path id="패스_9377" data-name="패스 9377" d="M4.5,15a2.615,2.615,0,0,1-2.626-2.625V10.406a.657.657,0,0,1,1.313,0v1.969a1.422,1.422,0,0,0,.383.93,1.433,1.433,0,0,0,.93.383h7a1.308,1.308,0,0,0,1.312-1.313V10.406a.657.657,0,0,1,1.313,0v1.969A2.615,2.615,0,0,1,11.5,15Zm7.656-8.039a.646.646,0,0,0,.027-.93.613.613,0,0,0-.9-.027L8.657,8.438V1.656a.656.656,0,1,0-1.312,0V8.438L4.72,6a.614.614,0,0,0-.9.027.6.6,0,0,0,.027.9l3.719,3.5a.612.612,0,0,0,.875.027Z" fill="#575f6b"/>
      </g>
    </g>
  </g>
</svg>
