<svg id="at" xmlns="http://www.w3.org/2000/svg" xmlns:xlink="http://www.w3.org/1999/xlink" width="20" height="20" viewBox="0 0 20 20">
  <defs>
    <clipPath id="clip-path">
      <rect id="사각형_856" data-name="사각형 856" width="20" height="20" fill="rgba(0,0,0,0)"/>
    </clipPath>
  </defs>
  <g id="at-2" data-name="at" clip-path="url(#clip-path)">
    <path id="패스_8564" data-name="패스 8564" d="M11.229,15.083a3.854,3.854,0,1,1,3.854-3.854,3.859,3.859,0,0,1-3.854,3.854m0-6.667a2.812,2.812,0,1,0,2.812,2.813,2.816,2.816,0,0,0-2.812-2.813" transform="translate(-1.229 -1.229)" fill="#686d75"/>
    <path id="패스_8565" data-name="패스 8565" d="M10.392,18.406h-.007a8.021,8.021,0,0,1,.009-16.042h.012a8.019,8.019,0,0,1,8.01,8.031v1.249a2.6,2.6,0,1,1-5.208,0v-1.25a.521.521,0,0,1,1.042,0v1.25a1.562,1.562,0,1,0,3.125,0v-1.25A6.978,6.978,0,0,0,10.4,3.406h-.01a6.979,6.979,0,0,0-.007,13.958h.005a6.948,6.948,0,0,0,2.717-.549.521.521,0,1,1,.407.958,7.971,7.971,0,0,1-3.123.632" transform="translate(-0.396 -0.394)" fill="#686d75"/>
  </g>
  <rect id="사각형_858" data-name="사각형 858" width="20" height="20" fill="none"/>
</svg>
