<svg id="icon_번역언어설정" xmlns="http://www.w3.org/2000/svg" xmlns:xlink="http://www.w3.org/1999/xlink" width="20" height="20" viewBox="0 0 20 20">
  <defs>
    <clipPath id="clip-path">
      <rect id="사각형_2711" data-name="사각형 2711" width="20" height="20" fill="#343a40"/>
    </clipPath>
  </defs>
  <g id="그룹_17170" data-name="그룹 17170" clip-path="url(#clip-path)">
    <path id="패스_9393" data-name="패스 9393" d="M14.535,2.556A8.987,8.987,0,0,1,17.77,14.861,8.987,8.987,0,0,1,5.465,18.1,8.987,8.987,0,0,1,2.23,5.791a8.987,8.987,0,0,1,12.3-3.235M2.441,12.576h3.2a18.023,18.023,0,0,1,0-4.5h-3.2a8.168,8.168,0,0,0,0,4.5M4.762,4.455A7.508,7.508,0,0,0,2.9,6.951H5.816A9.914,9.914,0,0,1,7.5,2.873,8,8,0,0,0,4.762,4.455M2.9,13.7a7.508,7.508,0,0,0,1.864,2.5A8,8,0,0,0,7.5,17.779,9.914,9.914,0,0,1,5.816,13.7Zm10.336-1.125a17,17,0,0,0,.141-2.25,17,17,0,0,0-.141-2.25H6.766a17,17,0,0,0-.141,2.25,17,17,0,0,0,.141,2.25ZM12.18,4.455a5.273,5.273,0,0,0-1.16-1.547A1.689,1.689,0,0,0,10,2.451a1.689,1.689,0,0,0-1.02.457A5.273,5.273,0,0,0,7.82,4.455a10.757,10.757,0,0,0-.843,2.5h6.011a9.757,9.757,0,0,0-.808-2.5M11.02,17.744A5.273,5.273,0,0,0,12.18,16.2a10.4,10.4,0,0,0,.808-2.5H6.977a11.574,11.574,0,0,0,.843,2.5,5.273,5.273,0,0,0,1.16,1.547A1.7,1.7,0,0,0,10,18.2a1.7,1.7,0,0,0,1.02-.457M14.184,6.951H17.1a7.508,7.508,0,0,0-1.864-2.5,8.062,8.062,0,0,0-2.707-1.582,10.243,10.243,0,0,1,1.653,4.078m0,6.75a10.243,10.243,0,0,1-1.653,4.078A8.062,8.062,0,0,0,15.238,16.2,7.508,7.508,0,0,0,17.1,13.7Zm.316-3.375a14.142,14.142,0,0,1-.176,2.25h3.235a8.168,8.168,0,0,0,0-4.5H14.324a14.142,14.142,0,0,1,.176,2.25" fill="#343a40"/>
  </g>
</svg>
