<svg id="icon_한글표기" xmlns="http://www.w3.org/2000/svg" xmlns:xlink="http://www.w3.org/1999/xlink" width="20" height="20" viewBox="0 0 20 20">
  <defs>
    <clipPath id="clip-path">
      <rect id="사각형_2715" data-name="사각형 2715" width="20" height="20" fill="#8DA6FF"/>
    </clipPath>
  </defs>
  <g id="그룹_17173" data-name="그룹 17173" clip-path="url(#clip-path)">
    <path id="패스_9396" data-name="패스 9396" d="M4.428,18.5H15.571A2.932,2.932,0,0,0,18.5,15.571V4.429A2.932,2.932,0,0,0,15.571,1.5H4.428A2.932,2.932,0,0,0,1.5,4.429V15.571A2.931,2.931,0,0,0,4.428,18.5M2.5,4.429A1.931,1.931,0,0,1,4.428,2.5H15.571A1.931,1.931,0,0,1,17.5,4.429V15.571A1.931,1.931,0,0,1,15.571,17.5H4.428A1.931,1.931,0,0,1,2.5,15.571Z" fill="#8DA6FF"/>
    <rect id="사각형_2713" data-name="사각형 2713" width="5.004" height="1.152" transform="translate(7.525 5.131)" fill="#8DA6FF"/>
    <path id="패스_9397" data-name="패스 9397" d="M12.672,10.063a4.363,4.363,0,0,0-2.627-.757,4.388,4.388,0,0,0-2.645.757,2.486,2.486,0,0,0,0,4.05,4.388,4.388,0,0,0,2.645.756,4.343,4.343,0,0,0,2.62-.765,2.471,2.471,0,0,0,.007-4.041m-.943,3.222a2.87,2.87,0,0,1-1.684.45,2.953,2.953,0,0,1-1.7-.45,1.437,1.437,0,0,1,0-2.412,2.953,2.953,0,0,1,1.7-.45,2.87,2.87,0,0,1,1.684.45,1.458,1.458,0,0,1,0,2.412" fill="#8DA6FF"/>
    <rect id="사각형_2714" data-name="사각형 2714" width="10.494" height="1.151" transform="translate(4.753 7.363)" fill="#8DA6FF"/>
  </g>
</svg>
