<svg xmlns="http://www.w3.org/2000/svg" xmlns:xlink="http://www.w3.org/1999/xlink" width="130.538" height="76.668" viewBox="0 0 130.538 76.668">
  <defs>
    <clipPath id="clip-path">
      <rect id="사각형_2615" data-name="사각형 2615" width="51" height="47.357" fill="#fff"/>
    </clipPath>
  </defs>
  <g id="그룹_18719" data-name="그룹 18719" transform="translate(-125 -250.599)">
    <g id="icon_캡션로고" transform="translate(165 250.599)">
      <g id="그룹_16977" data-name="그룹 16977" clip-path="url(#clip-path)">
        <path id="패스_9348" data-name="패스 9348" d="M40.072,0H10.928A10.942,10.942,0,0,0,0,10.928V25.5A10.942,10.942,0,0,0,10.928,36.428h6.277L34.552,46.836a3.642,3.642,0,0,0,5.519-3.122V36.428A10.942,10.942,0,0,0,51,25.5V10.928A10.941,10.941,0,0,0,40.072,0m3.643,25.5a3.647,3.647,0,0,1-3.643,3.643H36.429a3.642,3.642,0,0,0-3.643,3.641v4.493L20.09,29.66a3.663,3.663,0,0,0-1.876-.517H10.928A3.647,3.647,0,0,1,7.286,25.5V10.928a3.646,3.646,0,0,1,3.643-3.643H40.072a3.646,3.646,0,0,1,3.643,3.643Z" transform="translate(0 0)" fill="#fff"/>
        <path id="패스_9349" data-name="패스 9349" d="M29.215,31.364a4.363,4.363,0,1,1,4.363,4.363,4.363,4.363,0,0,1-4.363-4.363" transform="translate(-14.418 -13.325)" fill="#fff"/>
        <path id="패스_9350" data-name="패스 9350" d="M55.125,31.364a4.363,4.363,0,1,1,4.363,4.363,4.363,4.363,0,0,1-4.363-4.363" transform="translate(-27.205 -13.325)" fill="#fff"/>
      </g>
    </g>
    <g id="구성_요소_473_1" data-name="구성 요소 473 – 1" transform="translate(125 307.956)">
      <path id="패스_9413" data-name="패스 9413" d="M293.973,3.76a1.536,1.536,0,1,0-1.536-1.536,1.536,1.536,0,0,0,1.536,1.536" transform="translate(-197.696 -0.329)" fill="#fff"/>
      <path id="패스_9414" data-name="패스 9414" d="M299.14,13.889a1.365,1.365,0,0,0-1.365,1.365v-.005a1.348,1.348,0,1,1-2.7,0V10.868h4.039a1.355,1.355,0,1,0,0-2.71h-4.059L293.7,8.142A1.355,1.355,0,0,0,292.347,9.5v5.752a4.079,4.079,0,0,0,8.158,0,1.365,1.365,0,0,0-1.365-1.363" transform="translate(-197.653 -3.898)" fill="#fff"/>
      <path id="패스_9421" data-name="패스 9421" d="M228.492,9.037a1.069,1.069,0,0,0-.9.367,3.179,3.179,0,0,0-.472.95,3.857,3.857,0,0,1-1.342,1.875,3.635,3.635,0,0,1-2.176.638,3.771,3.771,0,0,1-2.071-.563,3.608,3.608,0,0,1-1.367-1.7,7.369,7.369,0,0,1-.483-2.86,6.327,6.327,0,0,1,1.09-3.97,3.526,3.526,0,0,1,2.931-1.4,3.351,3.351,0,0,1,1.945.543,4.5,4.5,0,0,1,1.372,1.639,3.752,3.752,0,0,0,.639.935,1.207,1.207,0,0,0,.859.272,1.148,1.148,0,0,0,.875-.392,1.294,1.294,0,0,0,.362-.9A3.479,3.479,0,0,0,229,2.478,5.768,5.768,0,0,0,226.864.714,6.907,6.907,0,0,0,223.677,0a7.33,7.33,0,0,0-2.765.522,6.469,6.469,0,0,0-2.262,1.523,6.8,6.8,0,0,0-1.483,2.408,9.189,9.189,0,0,0-.518,3.186,10.022,10.022,0,0,0,.206,2.071,8.086,8.086,0,0,0,.619,1.834,7.3,7.3,0,0,0,1,1.553A5.849,5.849,0,0,0,219.9,14.33a5.94,5.94,0,0,0,1.734.689,9.4,9.4,0,0,0,2.121.222,6.839,6.839,0,0,0,2.694-.493,5.574,5.574,0,0,0,1.9-1.282,5.489,5.489,0,0,0,1.09-1.609,3.922,3.922,0,0,0,.347-1.523,1.24,1.24,0,0,0-.382-.925,1.267,1.267,0,0,0-.915-.372" transform="translate(-161.414)" fill="#fff"/>
      <path id="패스_9422" data-name="패스 9422" d="M277.9,8.5a4.375,4.375,0,0,0-2.332-.653,3.937,3.937,0,0,0-1.89.447,5.421,5.421,0,0,0-1.608,1.4V9.368a1.622,1.622,0,0,0-.367-1.141,1.235,1.235,0,0,0-.95-.4,1.184,1.184,0,0,0-.935.387,1.728,1.728,0,0,0-.342,1.171V21.23a2.94,2.94,0,0,0,.252,1.362,1.055,1.055,0,0,0,1.025.467q1.317,0,1.317-1.809V17.129a5.661,5.661,0,0,0,1.523,1.387,3.827,3.827,0,0,0,1.976.472,4.356,4.356,0,0,0,1.824-.387A4.269,4.269,0,0,0,278.86,17.5a5.217,5.217,0,0,0,.981-1.779,7.265,7.265,0,0,0,.357-2.327,6.67,6.67,0,0,0-.619-2.976A4.5,4.5,0,0,0,277.9,8.5m-.8,6.775a2.724,2.724,0,0,1-.935,1.191,2.206,2.206,0,0,1-1.267.4,2.422,2.422,0,0,1-1.92-.91,3.813,3.813,0,0,1-.774-2.548,3.9,3.9,0,0,1,.779-2.634,2.443,2.443,0,0,1,1.915-.894,2.2,2.2,0,0,1,1.3.417,2.737,2.737,0,0,1,.92,1.2,4.75,4.75,0,0,1,.332,1.865,4.724,4.724,0,0,1-.352,1.92" transform="translate(-186.701 -3.749)" fill="#fff"/>
      <path id="패스_9423" data-name="패스 9423" d="M313.372.573a1.438,1.438,0,0,0-.945-.342,1.4,1.4,0,0,0-.97.377,1.236,1.236,0,0,0-.417.96,1.244,1.244,0,0,0,.407,1,1.448,1.448,0,0,0,.98.352,1.389,1.389,0,0,0,.955-.357,1.255,1.255,0,0,0,.4-.99,1.219,1.219,0,0,0-.412-1" transform="translate(-206.602 -0.111)" fill="#fff"/>
      <path id="패스_9424" data-name="패스 9424" d="M312.4,7.83a1.267,1.267,0,0,0-.98.412,1.762,1.762,0,0,0-.377,1.227V17.32a1.826,1.826,0,0,0,.377,1.236,1.24,1.24,0,0,0,.98.432,1.3,1.3,0,0,0,1-.422,1.77,1.77,0,0,0,.392-1.246V9.388a1.594,1.594,0,0,0-.392-1.146,1.314,1.314,0,0,0-1-.412" transform="translate(-206.602 -3.749)" fill="#fff"/>
      <path id="패스_9425" data-name="패스 9425" d="M328.39,9.378a4.925,4.925,0,0,0-1.739-1.146,6.55,6.55,0,0,0-4.5-.005,4.83,4.83,0,0,0-1.729,1.131,4.965,4.965,0,0,0-1.1,1.769,6.547,6.547,0,0,0-.382,2.282,6.47,6.47,0,0,0,.377,2.257,4.945,4.945,0,0,0,2.83,2.92,5.93,5.93,0,0,0,2.241.4,6.115,6.115,0,0,0,2.262-.4,4.878,4.878,0,0,0,1.729-1.141,5,5,0,0,0,1.106-1.779,6.494,6.494,0,0,0,.382-2.262,6.511,6.511,0,0,0-.377-2.262,4.956,4.956,0,0,0-1.1-1.769m-2.016,6.629a2.4,2.4,0,0,1-1.986.94,2.426,2.426,0,0,1-1.432-.427,2.688,2.688,0,0,1-.935-1.231,4.972,4.972,0,0,1-.327-1.88,5.014,5.014,0,0,1,.332-1.9,2.648,2.648,0,0,1,.945-1.232,2.461,2.461,0,0,1,1.417-.417,2.4,2.4,0,0,1,1.986.935,4.118,4.118,0,0,1,.739,2.614,4.1,4.1,0,0,1-.739,2.6" transform="translate(-210.384 -3.749)" fill="#fff"/>
      <path id="패스_9426" data-name="패스 9426" d="M352.048,10.724a3.185,3.185,0,0,0-.352-1.086A3,3,0,0,0,350.419,8.3a3.939,3.939,0,0,0-1.94-.473,4.218,4.218,0,0,0-1.975.447,4.807,4.807,0,0,0-1.583,1.4V9.347a1.805,1.805,0,0,0-.176-.834A1.225,1.225,0,0,0,344.277,8a1.272,1.272,0,0,0-.654-.171,1.182,1.182,0,0,0-.935.387,1.727,1.727,0,0,0-.342,1.171v7.932a1.807,1.807,0,0,0,.382,1.236,1.244,1.244,0,0,0,.975.432,1.3,1.3,0,0,0,1-.417,1.782,1.782,0,0,0,.387-1.252V13.881a8.574,8.574,0,0,1,.2-2.292,2.51,2.51,0,0,1,.884-1.2,2.228,2.228,0,0,1,1.337-.437,1.535,1.535,0,0,1,1.5.719,4.565,4.565,0,0,1,.377,2.076v4.574a1.81,1.81,0,0,0,.382,1.236,1.267,1.267,0,0,0,1,.432,1.252,1.252,0,0,0,.98-.422,1.817,1.817,0,0,0,.377-1.246V12.212a11.231,11.231,0,0,0-.08-1.488" transform="translate(-221.59 -3.748)" fill="#fff"/>
      <path id="패스_9427" data-name="패스 9427" d="M254.211,6.881a1.354,1.354,0,0,0-1.261.862,5.235,5.235,0,0,0-2.845-.837h-.579a5.261,5.261,0,0,0-5.261,5.261v1.517a5.261,5.261,0,0,0,5.261,5.261h.579a5.234,5.234,0,0,0,2.828-.825,1.354,1.354,0,0,0,2.633-.447V8.236a1.355,1.355,0,0,0-1.355-1.355m-1.355,6.89a2.516,2.516,0,0,1-2.516,2.515h-1.047a2.517,2.517,0,0,1-2.517-2.516V12a2.516,2.516,0,0,1,2.517-2.516h1.047A2.516,2.516,0,0,1,252.855,12Z" transform="translate(-174.634 -3.294)" fill="#fff"/>
      <path id="패스_9428" data-name="패스 9428" d="M82.771,1.29a1.536,1.536,0,1,0,1.536,1.536A1.536,1.536,0,0,0,82.771,1.29" transform="translate(-56.586 -0.618)" fill="#fff"/>
      <path id="패스_9429" data-name="패스 9429" d="M90.915,4.362a1.536,1.536,0,1,0-1.536-1.536,1.536,1.536,0,0,0,1.536,1.536" transform="translate(-60.485 -0.618)" fill="#fff"/>
      <path id="패스_9430" data-name="패스 9430" d="M69.777,13.647,64.024,8.821l4.926-2.5a1.355,1.355,0,1,0-1.046-2.5L62.685,6.411V2.572a1.355,1.355,0,0,0-2.71,0V14.818a1.355,1.355,0,1,0,2.71,0V11.257l5.492,4.578a1.355,1.355,0,1,0,1.6-2.188" transform="translate(-46.408 -0.583)" fill="#fff"/>
      <path id="패스_9431" data-name="패스 9431" d="M83.01,9.108a1.355,1.355,0,0,0-1.355,1.355v8.188a1.355,1.355,0,0,0,2.71,0V10.463A1.355,1.355,0,0,0,83.01,9.108" transform="translate(-56.787 -4.36)" fill="#fff"/>
      <path id="패스_9432" data-name="패스 9432" d="M44.684,1.334H35.473a1.525,1.525,0,0,0,0,3.049h3.251V14.929a1.355,1.355,0,0,0,2.711,0V4.383h3.251a1.525,1.525,0,0,0,0-3.049" transform="translate(-33.948 -0.639)" fill="#fff"/>
      <path id="패스_9433" data-name="패스 9433" d="M118.026,6.71a1.355,1.355,0,0,0-1.262.862,5.234,5.234,0,0,0-2.844-.836h-.579A5.261,5.261,0,0,0,108.08,12v1.517a5.26,5.26,0,0,0,5.261,5.261h.579a5.234,5.234,0,0,0,2.827-.825,1.354,1.354,0,0,0,2.633-.447V8.065a1.355,1.355,0,0,0-1.354-1.355M116.67,13.6a2.517,2.517,0,0,1-2.517,2.515h-1.047A2.516,2.516,0,0,1,110.59,13.6V11.831a2.516,2.516,0,0,1,2.516-2.516h1.047a2.517,2.517,0,0,1,2.517,2.515Z" transform="translate(-69.438 -3.212)" fill="#fff"/>
      <path id="패스_9434" data-name="패스 9434" d="M105.25,22.382v0" transform="translate(-68.083 -10.712)" fill="#fff"/>
      <path id="패스_9435" data-name="패스 9435" d="M96.393,14.491a1.365,1.365,0,0,0-1.365,1.365V15.85a1.349,1.349,0,1,1-2.7,0V11.47H96.37a1.355,1.355,0,1,0,0-2.71H92.311l-1.355-.016A1.355,1.355,0,0,0,89.6,10.1V15.85a4.079,4.079,0,0,0,8.158,0,1.365,1.365,0,0,0-1.365-1.363" transform="translate(-60.591 -4.186)" fill="#fff"/>
    </g>
  </g>
</svg>
