<svg id="check" xmlns="http://www.w3.org/2000/svg" xmlns:xlink="http://www.w3.org/1999/xlink" width="20" height="20" viewBox="0 0 20 20">
  <defs>
    <clipPath id="clip-path">
      <rect id="사각형_2291" data-name="사각형 2291" width="20" height="20" transform="translate(0.12)" fill="rgba(0,0,0,0)"/>
    </clipPath>
    <clipPath id="clip-path-2">
      <rect id="사각형_2532" data-name="사각형 2532" width="20" height="20" fill="#ff003e"/>
    </clipPath>
  </defs>
  <g id="check-2" data-name="check" transform="translate(-0.12)" opacity="0" clip-path="url(#clip-path)">
    <path id="패스_8871" data-name="패스 8871" d="M9.063,15.75a.519.519,0,0,1-.368-.152L4.528,11.431a.521.521,0,1,1,.737-.737l3.8,3.8,7.965-7.965a.521.521,0,0,1,.737.737L9.431,15.6a.519.519,0,0,1-.368.152" transform="translate(-0.729 -1.062)" fill="#19ce60"/>
  </g>
  <g id="구성_요소_208_2" data-name="구성 요소 208 – 2">
    <g id="그룹_4415" data-name="그룹 4415" clip-path="url(#clip-path-2)">
      <path id="패스_9253" data-name="패스 9253" d="M17.145,16.5H7.978a.625.625,0,0,1-.442-.183L3.37,12.15a1.882,1.882,0,0,1-.024-2.525l4.19-4.192a.625.625,0,0,1,.442-.183h9.168A1.46,1.46,0,0,1,18.6,6.708v8.333A1.46,1.46,0,0,1,17.145,16.5M8.238,15.25h8.907a.209.209,0,0,0,.208-.208V6.708a.209.209,0,0,0-.208-.208H8.238L4.254,10.483a.621.621,0,0,0,.025.808Z" transform="translate(-0.479 -0.875)" fill="#ff003e"/>
      <path id="패스_9254" data-name="패스 9254" d="M15.208,13.833a.62.62,0,0,1-.442-.183l-1.225-1.224L12.317,13.65a.625.625,0,0,1-.883-.883l1.224-1.225-1.224-1.225a.625.625,0,1,1,.883-.883l1.225,1.224,1.225-1.224a.625.625,0,0,1,.883.883l-1.224,1.225,1.224,1.225a.625.625,0,0,1-.442,1.067" transform="translate(-1.875 -1.542)" fill="#ff003e"/>
    </g>
  </g>
</svg>
