<svg id="구성_요소_213_1" data-name="구성 요소 213 – 1" xmlns="http://www.w3.org/2000/svg" xmlns:xlink="http://www.w3.org/1999/xlink" width="20" height="20" viewBox="0 0 20 20">
  <defs>
    <clipPath id="clip-path">
      <rect id="사각형_2531" data-name="사각형 2531" width="20" height="20" fill="#a7b1c2"/>
    </clipPath>
  </defs>
  <g id="그룹_4413" data-name="그룹 4413" clip-path="url(#clip-path)">
    <path id="패스_9251" data-name="패스 9251" d="M11.875,14.508a.627.627,0,1,1,.625-.633v.008a.625.625,0,0,1-.625.625m0-3.342a.625.625,0,0,1-.625-.625V8.875a.625.625,0,0,1,1.25,0v1.667a.625.625,0,0,1-.625.625" transform="translate(-1.875 -1.375)" fill="#a7b1c2"/>
    <path id="패스_9252" data-name="패스 9252" d="M4.448,16.828H4.415a2.325,2.325,0,0,1-.743-.165,2.292,2.292,0,0,1-1.261-2.986.525.525,0,0,1,.038-.078L8.365,3.39a2.292,2.292,0,0,1,4,.011l5.91,10.2a.538.538,0,0,1,.039.079,2.293,2.293,0,0,1-2.108,3.151H4.448Zm-.893-2.646a1.043,1.043,0,0,0,.926,1.4c.02,0,.039,0,.059,0H16.207a1.04,1.04,0,0,0,1.029-1.049,1.023,1.023,0,0,0-.062-.347L11.282,4.016a1.041,1.041,0,0,0-1.828-.011Z" transform="translate(-0.373 -0.37)" fill="#a7b1c2"/>
  </g>
</svg>
