<svg id="icon_마이페이지" xmlns="http://www.w3.org/2000/svg" xmlns:xlink="http://www.w3.org/1999/xlink" width="20" height="20" viewBox="0 0 20 20">
  <defs>
    <clipPath id="clip-path">
      <rect id="사각형_2758" data-name="사각형 2758" width="20" height="20" fill="none"/>
    </clipPath>
  </defs>
  <g id="그룹_17256" data-name="그룹 17256" clip-path="url(#clip-path)">
    <path id="패스_9409" data-name="패스 9409" d="M11.793,12.013a6.12,6.12,0,0,1,6.082,6.082,1.2,1.2,0,0,1-1.23,1.23H3.355a1.2,1.2,0,0,1-1.231-1.23,6.122,6.122,0,0,1,6.083-6.082ZM16.645,18.2a.093.093,0,0,0,.1-.105,4.92,4.92,0,0,0-4.957-4.957H8.207a5.094,5.094,0,0,0-3.516,1.441A5.091,5.091,0,0,0,3.25,18.095a.093.093,0,0,0,.105.105ZM10,10.325a4.524,4.524,0,0,1-3.2-7.7,4.524,4.524,0,0,1,6.4,6.4,4.53,4.53,0,0,1-3.2,1.3M10,2.45a3.36,3.36,0,1,0,2.391.984A3.367,3.367,0,0,0,10,2.45" fill="#575f6b"/>
  </g>
</svg>
