<svg id="icon_제목수정" xmlns="http://www.w3.org/2000/svg" xmlns:xlink="http://www.w3.org/1999/xlink" width="20" height="20" viewBox="0 0 20 20">
  <defs>
    <clipPath id="clip-path">
      <rect id="사각형_738" data-name="사각형 738" width="20" height="20" fill="#575f6b"/>
    </clipPath>
  </defs>
  <g id="icon_edit_title">
    <g id="그룹_3606" data-name="그룹 3606" clip-path="url(#clip-path)">
      <path id="패스_8453" data-name="패스 8453" d="M18.761,5.96a.623.623,0,0,1-.443-.183L15.472,2.93a.625.625,0,1,1,.884-.883L19.2,4.893a.625.625,0,0,1-.443,1.067" transform="translate(-2.548 -0.311)" fill="#575f6b"/>
      <path id="패스_8454" data-name="패스 8454" d="M4.42,15.865A.625.625,0,0,1,3.8,15.15l.487-3.333a.622.622,0,0,1,.176-.352L11.919,4.01a.624.624,0,0,1,.883,0L15.65,6.857a.626.626,0,0,1,0,.884L8.194,15.2a.618.618,0,0,1-.352.177l-3.333.487a.654.654,0,0,1-.09.007m3.333-1.112h0ZM5.495,12.2l-.336,2.3,2.3-.335L14.323,7.3,12.361,5.336Z" transform="translate(-0.632 -0.638)" fill="#575f6b"/>
      <path id="패스_8455" data-name="패스 8455" d="M15.775,21.887H4.466a.625.625,0,0,1,0-1.25H15.775a.625.625,0,0,1,0,1.25" transform="translate(-0.64 -3.44)" fill="#575f6b"/>
    </g>
  </g>
</svg>
