<svg id="icon_내보내기_최종_" data-name="icon_내보내기(최종)" xmlns="http://www.w3.org/2000/svg" xmlns:xlink="http://www.w3.org/1999/xlink" width="20" height="20" viewBox="0 0 20 20">
  <defs>
    <clipPath id="clip-path">
      <rect id="사각형_24077" data-name="사각형 24077" width="20" height="20" fill="#d4d7e3"/>
    </clipPath>
  </defs>
  <g id="그룹_18718" data-name="그룹 18718" clip-path="url(#clip-path)">
    <path id="패스_50757" data-name="패스 50757" d="M16.125,13.242v2.11a2.8,2.8,0,0,1-2.813,2.812h-7.5A2.8,2.8,0,0,1,3,15.352v-2.11a.7.7,0,0,1,1.406,0v2.11a1.528,1.528,0,0,0,.41,1,1.529,1.529,0,0,0,1,.41h7.5a1.4,1.4,0,0,0,1.406-1.406v-2.11a.7.7,0,0,1,1.407,0M5.109,7.09a.69.69,0,0,0-.029,1,.655.655,0,0,0,.966.029L8.859,5.508v7.266a.7.7,0,0,0,.7.7.688.688,0,0,0,.7-.674v-7.3l2.813,2.607a.656.656,0,0,0,.967-.029.649.649,0,0,0,.2-.469.637.637,0,0,0-.235-.5l-3.984-3.75a.64.64,0,0,0-.938,0Z" fill="#d4d7e3"/>
  </g>
</svg>
