<svg xmlns="http://www.w3.org/2000/svg" xmlns:xlink="http://www.w3.org/1999/xlink" width="20" height="20" viewBox="0 0 20 20">
  <defs>
    <clipPath id="clip-path">
      <rect id="사각형_885" data-name="사각형 885" width="20" height="20" fill="#686d75"/>
    </clipPath>
  </defs>
  <g id="그룹_3852" data-name="그룹 3852" clip-path="url(#clip-path)">
    <path id="패스_8812" data-name="패스 8812" d="M14.9,19.75H6.563a2.191,2.191,0,0,1-2.187-2.187v-5a2.19,2.19,0,0,1,2.188-2.187H14.9a2.19,2.19,0,0,1,2.187,2.188v5A2.191,2.191,0,0,1,14.9,19.75M6.563,11.417a1.147,1.147,0,0,0-1.146,1.146v5a1.147,1.147,0,0,0,1.146,1.146H14.9a1.147,1.147,0,0,0,1.146-1.146v-5A1.147,1.147,0,0,0,14.9,11.417Z" transform="translate(-0.729 -1.729)" fill="#686d75"/>
    <path id="패스_8813" data-name="패스 8813" d="M11.729,17.083a1.354,1.354,0,1,1,1.354-1.354,1.356,1.356,0,0,1-1.354,1.354m0-1.667a.313.313,0,1,0,.313.313.313.313,0,0,0-.312-.312" transform="translate(-1.729 -2.396)" fill="#686d75"/>
    <path id="패스_8814" data-name="패스 8814" d="M14.563,10.083a.521.521,0,0,1-.521-.521V6.229a2.812,2.812,0,1,0-5.625,0V9.563a.521.521,0,1,1-1.042,0V6.229a3.854,3.854,0,1,1,7.708,0V9.563a.521.521,0,0,1-.521.521" transform="translate(-1.229 -0.396)" fill="#686d75"/>
  </g>
</svg>
