<svg xmlns="http://www.w3.org/2000/svg" xmlns:xlink="http://www.w3.org/1999/xlink" width="20" height="20" viewBox="0 0 20 20">
  <defs>
    <linearGradient id="linear-gradient" x1="0.123" y1="0.145" x2="0.886" y2="0.894" gradientUnits="objectBoundingBox">
      <stop offset="0" stop-color="#33b3ff"/>
      <stop offset="0.459" stop-color="#3392ff"/>
      <stop offset="1" stop-color="#2848ff"/>
    </linearGradient>
    <clipPath id="clip-path">
      <rect id="사각형_2638" data-name="사각형 2638" width="20" height="20" fill="url(#linear-gradient)"/>
    </clipPath>
  </defs>
  <g id="그룹_17062" data-name="그룹 17062" clip-path="url(#clip-path)">
    <path id="패스_9353" data-name="패스 9353" d="M11.562,2.726a3.261,3.261,0,0,1,1.094,1.156,2.855,2.855,0,0,1,1.562-.062,3.14,3.14,0,0,1,1.438.813,3.059,3.059,0,0,1,.782,1.406,3.18,3.18,0,0,1-.032,1.593,3.272,3.272,0,0,1,1.157,1.094,3.012,3.012,0,0,1,0,3.125,3.254,3.254,0,0,1-1.157,1.094,3.028,3.028,0,0,1-.75,3,3.269,3.269,0,0,1-1.438.781,3.053,3.053,0,0,1-1.562-.031,3.252,3.252,0,0,1-1.094,1.156,3.006,3.006,0,0,1-3.125,0,3.226,3.226,0,0,1-1.094-1.156,3.169,3.169,0,0,1-1.593.031,2.712,2.712,0,0,1-1.405-.781,3.019,3.019,0,0,1-.75-3,3.2,3.2,0,0,1-1.157-1.094,3.006,3.006,0,0,1,0-3.125A3.215,3.215,0,0,1,3.6,7.632a2.887,2.887,0,0,1,.75-3A2.923,2.923,0,0,1,5.75,3.82a3.441,3.441,0,0,1,1.593.062A3.235,3.235,0,0,1,8.437,2.726a3.012,3.012,0,0,1,3.125,0M10.031,6.32a.641.641,0,0,0-.625.625v.281a2.857,2.857,0,0,0-.594.188A1.694,1.694,0,0,0,7.781,8.633a1.758,1.758,0,0,0,.094,1,1.516,1.516,0,0,0,.594.656,5.628,5.628,0,0,0,1.218.531H9.75l.094.031a3.951,3.951,0,0,1,1.062.406.257.257,0,0,1,.125.188c.041.021.051.1.031.25a.537.537,0,0,1-.312.375,2.108,2.108,0,0,1-1.063.062,4.413,4.413,0,0,1-.875-.281H8.781a.233.233,0,0,1-.094-.031.281.281,0,0,0-.125-.031.616.616,0,0,0-.781.375.623.623,0,0,0,.375.812.539.539,0,0,1,.156.031c.354.125.719.241,1.094.344v.281a.64.64,0,0,0,.625.625.629.629,0,0,0,.594-.625v-.25a2.176,2.176,0,0,0,.593-.187,1.649,1.649,0,0,0,1.063-1.281,1.67,1.67,0,0,0-.094-.969,1.577,1.577,0,0,0-.562-.687,4.379,4.379,0,0,0-1.375-.594h-.032a6.011,6.011,0,0,1-1.062-.406C9.051,9.195,9,9.143,9,9.1a.352.352,0,0,1,0-.218c0-.1.1-.219.312-.344a1.771,1.771,0,0,1,1.031-.094.964.964,0,0,1,.219.031c.229.042.416.073.563.094a.575.575,0,0,0,.75-.406.653.653,0,0,0-.438-.782c-.23-.041-.5-.093-.812-.156V6.945a.63.63,0,0,0-.594-.625" fill="url(#linear-gradient)"/>
  </g>
</svg>
