<svg id="icon_기록" xmlns="http://www.w3.org/2000/svg" xmlns:xlink="http://www.w3.org/1999/xlink" width="20" height="20" viewBox="0 0 20 20">
  <defs>
    <clipPath id="clip-path">
      <rect id="사각형_2754" data-name="사각형 2754" width="20" height="20" fill="none"/>
    </clipPath>
  </defs>
  <g id="그룹_17253" data-name="그룹 17253" clip-path="url(#clip-path)">
    <path id="패스_9401" data-name="패스 9401" d="M13.059,17.075a.286.286,0,0,1,.281.317,2.259,2.259,0,0,1-.738,1.371,2.447,2.447,0,0,1-1.512.562H4.375a2.281,2.281,0,0,1-2.25-2.25V6.95A2.281,2.281,0,0,1,4.375,4.7h.844a.282.282,0,0,1,0,.563H4.375a1.831,1.831,0,0,0-1.195.492A1.624,1.624,0,0,0,2.688,6.95V17.075a1.626,1.626,0,0,0,.492,1.2,1.841,1.841,0,0,0,1.195.492h6.75a1.552,1.552,0,0,0,1.09-.422,1.641,1.641,0,0,0,.563-1.019.256.256,0,0,1,.281-.247m4.5-12.128a1.049,1.049,0,0,1,.317.773V13.7a2.281,2.281,0,0,1-2.251,2.25H8.876a2.272,2.272,0,0,1-1.583-.668A2.147,2.147,0,0,1,6.661,13.7V3.575a2.151,2.151,0,0,1,.632-1.582,2.321,2.321,0,0,1,1.618-.668h4.535a1.22,1.22,0,0,1,.844.317ZM17.313,13.7V5.825H14.219a.839.839,0,0,1-.843-.843V1.888H8.911a1.738,1.738,0,0,0-1.2.492,1.628,1.628,0,0,0-.492,1.195V13.7a1.629,1.629,0,0,0,.492,1.2,1.747,1.747,0,0,0,1.2.492h6.714A1.68,1.68,0,0,0,17.313,13.7M13.938,2.134V4.982a.3.3,0,0,0,.281.281h2.848Z" fill="#575f6b"/>
    <path id="패스_9402" data-name="패스 9402" d="M11.095,19.575H4.366a2.531,2.531,0,0,1-2.491-2.491V6.941A2.531,2.531,0,0,1,4.366,4.45h.872l.018,0a.551.551,0,0,1,.492.495l0,.035,0,.035a.55.55,0,0,1-.492.494l-.018,0H4.381a1.573,1.573,0,0,0-1.028.422A1.371,1.371,0,0,0,2.938,6.95V17.075a1.375,1.375,0,0,0,.415,1.016,1.582,1.582,0,0,0,1.028.422h6.743a1.3,1.3,0,0,0,.92-.356l.008-.007a1.385,1.385,0,0,0,.477-.866.5.5,0,0,1,.528-.459l.03,0a.533.533,0,0,1,.5.565v.021l0,.02a2.512,2.512,0,0,1-.819,1.518l-.006,0a2.7,2.7,0,0,1-1.662.62Zm-6.715-.5h6.705a2.182,2.182,0,0,0,1.354-.5,1.993,1.993,0,0,0,.65-1.2.106.106,0,0,0-.007-.038.168.168,0,0,0-.038-.011h-.012a.164.164,0,0,0-.006.03v.006a1.891,1.891,0,0,1-.644,1.165,1.8,1.8,0,0,1-1.256.485H4.362a2.092,2.092,0,0,1-1.352-.558L3,18.448a1.877,1.877,0,0,1-.565-1.373V6.95A1.873,1.873,0,0,1,3,5.578l.006-.006a2.082,2.082,0,0,1,1.353-.559H5.2c.029-.005.04-.013.047-.031S5.227,4.955,5.2,4.95H4.38a2.031,2.031,0,0,0-2,2V17.07a2.031,2.031,0,0,0,2,2ZM15.63,16.2H8.867a2.524,2.524,0,0,1-1.751-.741A2.4,2.4,0,0,1,6.411,13.7V3.575a2.4,2.4,0,0,1,.705-1.759A2.574,2.574,0,0,1,8.9,1.075h4.544a1.469,1.469,0,0,1,1.011.381l.011.01,3.269,3.3a1.294,1.294,0,0,1,.389.949v7.989a2.531,2.531,0,0,1-2.492,2.49Zm-6.749-.5H15.62a2.031,2.031,0,0,0,2.006-2V5.72a.915.915,0,0,0-.023-.207H14.2l-.018,0a.55.55,0,0,1-.492-.494l0-.035V1.6a1.1,1.1,0,0,0-.242-.026H8.916A2.061,2.061,0,0,0,7.47,2.17a1.892,1.892,0,0,0-.559,1.405V13.7a1.889,1.889,0,0,0,.559,1.405A2.011,2.011,0,0,0,8.881,15.7Zm4.9-14.072,3.789,3.789a.806.806,0,0,0-.192-.293l-3.265-3.3A.961.961,0,0,0,13.785,1.628Zm.454,3.385h2.224L14.188,2.738V4.963C14.194,5,14.2,5.006,14.239,5.013Zm1.392,10.625H8.9a2,2,0,0,1-1.36-.565A1.877,1.877,0,0,1,6.973,13.7V3.575A1.876,1.876,0,0,1,7.538,2.2,1.988,1.988,0,0,1,8.9,1.638h4.727V4.97a.587.587,0,0,0,.6.6h3.332v8.137A2.083,2.083,0,0,1,17,15.066l-.013.013a2.093,2.093,0,0,1-1.353.558Zm-6.714-.5h6.7a1.431,1.431,0,0,0,1.445-1.444V6.075H14.2A1.088,1.088,0,0,1,13.127,5V2.138H8.917a1.483,1.483,0,0,0-1.025.419,1.374,1.374,0,0,0-.419,1.018V13.7a1.375,1.375,0,0,0,.419,1.019A1.491,1.491,0,0,0,8.917,15.138Z" fill="#575f6b"/>
  </g>
</svg>
