<svg xmlns="http://www.w3.org/2000/svg" xmlns:xlink="http://www.w3.org/1999/xlink" width="16" height="14.857" viewBox="0 0 16 14.857">
  <defs>
    <clipPath id="clip-path">
      <rect id="사각형_2756" data-name="사각형 2756" width="16" height="14.857" transform="translate(0 0)" fill="#a7b1c2"/>
    </clipPath>
  </defs>
  <g id="icon_캡션로고_팝업_16" clip-path="url(#clip-path)">
    <path id="패스_9405" data-name="패스 9405" d="M12.571,0H3.429A3.433,3.433,0,0,0,0,3.429V8a3.433,3.433,0,0,0,3.429,3.429H5.4l5.442,3.265a1.143,1.143,0,0,0,1.732-.979V11.429A3.433,3.433,0,0,0,16,8V3.429A3.433,3.433,0,0,0,12.571,0m1.143,8a1.144,1.144,0,0,1-1.143,1.143H11.429a1.143,1.143,0,0,0-1.143,1.142h0v1.409L6.3,9.305a1.149,1.149,0,0,0-.589-.162H3.429A1.144,1.144,0,0,1,2.286,8V3.429A1.144,1.144,0,0,1,3.429,2.286h9.143a1.144,1.144,0,0,1,1.143,1.143Z" transform="translate(0 0)" fill="#a7b1c2"/>
    <path id="패스_9406" data-name="패스 9406" d="M29.215,28.37a1.369,1.369,0,1,1,1.369,1.369,1.369,1.369,0,0,1-1.369-1.369" transform="translate(-24.573 -22.711)" fill="#a7b1c2"/>
    <path id="패스_9407" data-name="패스 9407" d="M55.125,28.37a1.369,1.369,0,1,1,1.369,1.369,1.369,1.369,0,0,1-1.369-1.369" transform="translate(-46.366 -22.711)" fill="#a7b1c2"/>
  </g>
</svg>
