<svg xmlns="http://www.w3.org/2000/svg" xmlns:xlink="http://www.w3.org/1999/xlink" width="20" height="20" viewBox="0 0 20 20">
  <defs>
    <clipPath id="clip-path">
      <rect id="사각형_2769" data-name="사각형 2769" width="20" height="20" fill="none"/>
    </clipPath>
  </defs>
  <g id="그룹_17267" data-name="그룹 17267" clip-path="url(#clip-path)">
    <path id="패스_9412" data-name="패스 9412" d="M16.645,11.451a.972.972,0,0,1,.808.352.989.989,0,0,1,.246.843,8.431,8.431,0,0,1-12.515,5.52A8.5,8.5,0,0,1,2.16,15.142,8.413,8.413,0,0,1,1,10.888,8.431,8.431,0,0,1,7.68,2.627a.989.989,0,0,1,.843.246.972.972,0,0,1,.352.808v7.77ZM3.742,6.318a7.148,7.148,0,0,0-1.617,4.57A7.324,7.324,0,0,0,9.437,18.2a7.149,7.149,0,0,0,4.571-1.617,7.143,7.143,0,0,0,2.531-4.008H8.875A1.082,1.082,0,0,1,7.75,11.451V3.787A7.143,7.143,0,0,0,3.742,6.318M10.6,1.326a8.65,8.65,0,0,1,4.254,1.125A8.227,8.227,0,0,1,17.84,5.474,8.438,8.438,0,0,1,19,9.728a.616.616,0,0,1-.633.6h-7.8A.541.541,0,0,1,10,9.763v-7.8a.616.616,0,0,1,.6-.633M17.875,9.2A7.366,7.366,0,0,0,15.73,4.6a7.21,7.21,0,0,0-4.6-2.11V9.2Z" fill="#575f6b"/>
  </g>
</svg>
