<svg id="icon_작동방식설정" xmlns="http://www.w3.org/2000/svg" xmlns:xlink="http://www.w3.org/1999/xlink" width="23" height="20" viewBox="0 0 23 20">
  <defs>
    <clipPath id="clip-path">
      <rect id="사각형_2717" data-name="사각형 2717" width="23" height="20" fill="none"/>
    </clipPath>
  </defs>
  <g id="그룹_17176" data-name="그룹 17176" clip-path="url(#clip-path)">
    <path id="패스_9400" data-name="패스 9400" d="M12.7,3.153a5.994,5.994,0,0,1,2.18,1.934A3.715,3.715,0,0,1,16.563,4.7,3.961,3.961,0,0,1,20.5,8.638a4.475,4.475,0,0,1-.141,1.09,4.231,4.231,0,0,1,1.722,1.617A4.306,4.306,0,0,1,22.75,13.7a4.44,4.44,0,0,1-4.5,4.5H5.313a5.193,5.193,0,0,1-3.586-1.476A5.194,5.194,0,0,1,.25,13.138,5.081,5.081,0,0,1,3.626,8.357,6.189,6.189,0,0,1,9.813,2.45a5.972,5.972,0,0,1,2.883.7M6.3,4.982A5.116,5.116,0,0,0,4.751,8.427a1.124,1.124,0,0,1-.739.984,3.77,3.77,0,0,0-1.9,1.442,4.021,4.021,0,0,0-.738,2.285,3.813,3.813,0,0,0,1.16,2.777,3.806,3.806,0,0,0,2.777,1.16H18.251A3.361,3.361,0,0,0,21.626,13.7a3.209,3.209,0,0,0-.492-1.758,3.664,3.664,0,0,0-1.3-1.23,1.17,1.17,0,0,1-.563-1.336,2.316,2.316,0,0,0,.106-.738,2.923,2.923,0,0,0-.809-2,2.923,2.923,0,0,0-2-.809,2.493,2.493,0,0,0-1.195.282,1.137,1.137,0,0,1-1.406-.387,4.992,4.992,0,0,0-1.793-1.547,4.69,4.69,0,0,0-2.356-.6A5.04,5.04,0,0,0,6.3,4.982m3.691,9.105-2.25-2.25a.547.547,0,1,1,.773-.773l1.864,1.828,4.113-4.078a.547.547,0,0,1,.773.773l-4.5,4.5a.513.513,0,0,1-.773,0" fill="#575f6b"/>
  </g>
</svg>
