<svg xmlns="http://www.w3.org/2000/svg" xmlns:xlink="http://www.w3.org/1999/xlink" width="20" height="20" viewBox="0 0 20 20">
  <defs>
    <clipPath id="clip-path">
      <rect id="사각형_2767" data-name="사각형 2767" width="20" height="20" fill="none"/>
    </clipPath>
  </defs>
  <g id="그룹_17263" data-name="그룹 17263" clip-path="url(#clip-path)">
    <path id="패스_9411" data-name="패스 9411" d="M14.5,1.325a2.281,2.281,0,0,1,2.25,2.25v13.5a2.281,2.281,0,0,1-2.25,2.25h-9a2.283,2.283,0,0,1-2.251-2.25V3.575A2.283,2.283,0,0,1,5.5,1.325Zm1.125,15.75V3.575A1.083,1.083,0,0,0,14.5,2.45h-9A1.083,1.083,0,0,0,4.375,3.575v13.5A1.082,1.082,0,0,0,5.5,18.2h9a1.082,1.082,0,0,0,1.125-1.125M10,9.2a3.962,3.962,0,0,1,3.938,3.938A3.962,3.962,0,0,1,10,17.075a3.962,3.962,0,0,1-3.938-3.937A3.962,3.962,0,0,1,10,9.2m0,6.75a2.762,2.762,0,0,0,2.813-2.812A2.764,2.764,0,0,0,10,10.325a2.834,2.834,0,0,0-2,4.817,2.914,2.914,0,0,0,2,.808m0-7.875a2.281,2.281,0,1,1,1.582-.668A2.266,2.266,0,0,1,10,8.075M10,4.7A1.083,1.083,0,0,0,8.875,5.825a1.125,1.125,0,1,0,2.25,0A1.083,1.083,0,0,0,10,4.7m0,7.594a.844.844,0,1,1-.844.844A.842.842,0,0,1,10,12.294" fill="#575f6b"/>
  </g>
</svg>
