<svg id="icon_세팅" xmlns="http://www.w3.org/2000/svg" xmlns:xlink="http://www.w3.org/1999/xlink" width="20" height="20" viewBox="0 0 20 20">
  <defs>
    <clipPath id="clip-path">
      <rect id="사각형_2696" data-name="사각형 2696" width="20" height="20" fill="none"/>
    </clipPath>
  </defs>
  <g id="그룹_17157" data-name="그룹 17157" clip-path="url(#clip-path)">
    <path id="패스_9390" data-name="패스 9390" d="M1.879,8.146a1.14,1.14,0,0,1-.211-1.407L2.723,4.911a1.145,1.145,0,0,1,1.336-.527l1.828.6a6.457,6.457,0,0,1,1.547-.914L7.856,2.2a1.11,1.11,0,0,1,1.09-.879h2.109A1.17,1.17,0,0,1,12.18,2.2l.387,1.863a7.548,7.548,0,0,1,1.547.914l1.828-.6a1.146,1.146,0,0,1,1.336.527l1.054,1.828a1.141,1.141,0,0,1-.211,1.407l-1.441,1.3a5.122,5.122,0,0,1,.07.844,5.554,5.554,0,0,1-.07.914l1.441,1.3a1.14,1.14,0,0,1,.211,1.406l-1.054,1.828a1.148,1.148,0,0,1-1.336.528l-1.828-.6a7.458,7.458,0,0,1-1.547.914l-.387,1.863a1.17,1.17,0,0,1-1.125.879H8.946a1.11,1.11,0,0,1-1.09-.879l-.422-1.863a6.392,6.392,0,0,1-1.547-.914l-1.828.6a1.147,1.147,0,0,1-1.336-.528L1.668,13.911a1.139,1.139,0,0,1,.211-1.406l1.442-1.3a5.55,5.55,0,0,1-.071-.914,5.124,5.124,0,0,1,.071-.844ZM6.1,6.247,3.707,5.474,2.653,7.3,4.516,8.989l-.106.6c-.023.234-.035.469-.035.7q0,.422.035.774l.106.6L2.653,13.349l1.054,1.828L6.1,14.439l.457.351a4.649,4.649,0,0,0,1.3.7l.562.246L8.946,18.2h2.109l.562-2.461.493-.246a4.551,4.551,0,0,0,1.336-.7l.457-.351,2.39.738,1.055-1.828-1.863-1.688.105-.6a7.809,7.809,0,0,0,0-1.477l-.105-.6L17.348,7.3,16.293,5.474l-2.39.773-.457-.387a5.327,5.327,0,0,0-1.336-.738l-.493-.211L11.055,2.45H8.946L8.418,4.911l-.562.211a5.512,5.512,0,0,0-1.3.738ZM7.821,8.11a3.094,3.094,0,0,1,5.273,2.18,3.124,3.124,0,0,1-.914,2.215,3.056,3.056,0,0,1-4.359,0,3.124,3.124,0,0,1-.914-2.215,3.084,3.084,0,0,1,.914-2.18m.773.809a2.065,2.065,0,0,0-.562,1.371A2.106,2.106,0,0,0,8.594,11.7,1.909,1.909,0,0,0,10,12.259a1.909,1.909,0,0,0,1.407-.563,2.11,2.11,0,0,0,.562-1.406,2.069,2.069,0,0,0-.562-1.371,1.953,1.953,0,0,0-2.813,0" fill="#575f6b"/>
  </g>
</svg>
