<svg xmlns="http://www.w3.org/2000/svg" xmlns:xlink="http://www.w3.org/1999/xlink" width="23" height="20" viewBox="0 0 23 20">
  <defs>
    <clipPath id="clip-path">
      <rect id="사각형_2677" data-name="사각형 2677" width="23" height="20" fill="none"/>
    </clipPath>
  </defs>
  <g id="그룹_17126" data-name="그룹 17126" clip-path="url(#clip-path)">
    <path id="패스_9383" data-name="패스 9383" d="M22.646,19.108a.582.582,0,0,1-.809.106L.462,2.339a.577.577,0,0,1,.7-.915L22.54,18.3a.577.577,0,0,1,.106.809M4.259,7.471a13.93,13.93,0,0,0-1.793,2.813,15.743,15.743,0,0,0,1.125,2.039,14.74,14.74,0,0,0,1.9,2.215,10.314,10.314,0,0,0,2.637,1.793,8.144,8.144,0,0,0,7.137-.176l.949.738a9.49,9.49,0,0,1-4.746,1.3,9.028,9.028,0,0,1-3.8-.844,11.5,11.5,0,0,1-2.953-2,15.354,15.354,0,0,1-2.039-2.39,14.748,14.748,0,0,1-1.231-2.215,1.311,1.311,0,0,1,0-.844,14.447,14.447,0,0,1,1.9-3.129Zm15.4,6.4-.878-.668A13.42,13.42,0,0,0,20.5,10.319a12.621,12.621,0,0,0-1.09-2.039,13.409,13.409,0,0,0-1.9-2.18,10.3,10.3,0,0,0-2.637-1.793A8.292,8.292,0,0,0,11.5,3.569a8.181,8.181,0,0,0-3.762.914L6.79,3.745a9.038,9.038,0,0,1,8.543-.492,12.2,12.2,0,0,1,2.953,2.039,13.455,13.455,0,0,1,2.039,2.39A14.66,14.66,0,0,1,21.556,9.9a1.3,1.3,0,0,1,0,.844,14.447,14.447,0,0,1-1.9,3.129M7,9.862a.56.56,0,0,0,.035-.176l1.09.844a3.368,3.368,0,0,0,3.34,3.164,5.243,5.243,0,0,0,.633-.035l1.054.844a4.41,4.41,0,0,1-1.687.316A4.351,4.351,0,0,1,8.3,13.483a4.585,4.585,0,0,1-1.336-3.2A3.12,3.12,0,0,1,7,9.862m8.965,1.125-1.09-.879a3.293,3.293,0,0,0-1.055-2.25,3.39,3.39,0,0,0-2.355-.949,1.232,1.232,0,0,0-.387.07h-.14l-1.09-.844a4.772,4.772,0,0,1,1.617-.351,4.585,4.585,0,0,1,3.2,1.336A4.351,4.351,0,0,1,16,10.284a6.514,6.514,0,0,1-.035.7" fill="#575f6b"/>
  </g>
</svg>
