<?xml version="1.0" encoding="utf-8"?>
<!-- Generator: Adobe Illustrator 27.4.0, SVG Export Plug-In . SVG Version: 6.00 Build 0)  -->
<svg version="1.1" id="레이어_1" xmlns="http://www.w3.org/2000/svg" xmlns:xlink="http://www.w3.org/1999/xlink" x="0px"
	 y="0px" viewBox="-5 -5 34 34" style="enable-background:new 0 0 34 34;" xml:space="preserve">
<style type="text/css">
	.st0{fill:#335FFF;}
</style>
<path class="st0" d="M4,3C3.5,3,3,3.4,3,4v16c0,0.6,0.5,1,1,1h16c0.6,0,1-0.5,1-1V4c0-0.5-0.4-1-1-1L4,3z M4.5,19.5v-15H14v15H4.5z
	 M19.5,4.5v15h-4v-15H19.5z M8.2,8.2C8,8.1,7.9,8,7.7,8C7.3,8,7,8.3,7,8.7v6.6C7,15.7,7.3,16,7.7,16c0.2,0,0.3-0.1,0.5-0.2
	c1.1-1,2.7-2.4,3.6-3.2c0.2-0.2,0.3-0.4,0.3-0.6c0-0.2-0.1-0.4-0.3-0.6C10.8,10.6,9.2,9.2,8.2,8.2z"/>
</svg>
