<svg width="16" height="18" viewBox="0 0 16 18" fill="none" xmlns="http://www.w3.org/2000/svg">
<path d="M5.14286 2.25H1.71429C1.4 2.25 1.14286 2.50312 1.14286 2.8125V6.1875C1.14286 6.49688 1.4 6.75 1.71429 6.75H5.14286C5.45714 6.75 5.71429 6.49688 5.71429 6.1875V2.8125C5.71429 2.50312 5.45714 2.25 5.14286 2.25ZM1.71429 1.125H5.14286C6.08929 1.125 6.85714 1.88086 6.85714 2.8125V6.1875C6.85714 7.11914 6.08929 7.875 5.14286 7.875H1.71429C0.767857 7.875 0 7.11914 0 6.1875V2.8125C0 1.88086 0.767857 1.125 1.71429 1.125ZM5.14286 11.25H1.71429C1.4 11.25 1.14286 11.5031 1.14286 11.8125V15.1875C1.14286 15.4969 1.4 15.75 1.71429 15.75H5.14286C5.45714 15.75 5.71429 15.4969 5.71429 15.1875V11.8125C5.71429 11.5031 5.45714 11.25 5.14286 11.25ZM1.71429 10.125H5.14286C6.08929 10.125 6.85714 10.8809 6.85714 11.8125V15.1875C6.85714 16.1191 6.08929 16.875 5.14286 16.875H1.71429C0.767857 16.875 0 16.1191 0 15.1875V11.8125C0 10.8809 0.767857 10.125 1.71429 10.125ZM10.8571 2.25C10.5429 2.25 10.2857 2.50312 10.2857 2.8125V6.1875C10.2857 6.49688 10.5429 6.75 10.8571 6.75H14.2857C14.6 6.75 14.8571 6.49688 14.8571 6.1875V2.8125C14.8571 2.50312 14.6 2.25 14.2857 2.25H10.8571ZM9.14286 2.8125C9.14286 1.88086 9.91071 1.125 10.8571 1.125H14.2857C15.2321 1.125 16 1.88086 16 2.8125V6.1875C16 7.11914 15.2321 7.875 14.2857 7.875H10.8571C9.91071 7.875 9.14286 7.11914 9.14286 6.1875V2.8125ZM9.14286 10.6875C9.14286 10.3781 9.4 10.125 9.71429 10.125H12C12.3143 10.125 12.5714 10.3781 12.5714 10.6875V13.0781H14.8571V10.6875C14.8571 10.3781 15.1143 10.125 15.4286 10.125C15.7429 10.125 16 10.3781 16 10.6875V13.6406C16 13.95 15.7429 14.2031 15.4286 14.2031H12C11.6857 14.2031 11.4286 13.95 11.4286 13.6406V11.25H10.2857V16.5938C10.2857 16.9031 10.0286 17.1562 9.71429 17.1562C9.4 17.1562 9.14286 16.9031 9.14286 16.5938V10.6875ZM3.14286 3.65625H3.71429C4.02857 3.65625 4.28571 3.90937 4.28571 4.21875V4.78125C4.28571 5.09063 4.02857 5.34375 3.71429 5.34375H3.14286C2.82857 5.34375 2.57143 5.09063 2.57143 4.78125V4.21875C2.57143 3.90937 2.82857 3.65625 3.14286 3.65625ZM2.57143 13.2188C2.57143 12.9094 2.82857 12.6562 3.14286 12.6562H3.71429C4.02857 12.6562 4.28571 12.9094 4.28571 13.2188V13.7812C4.28571 14.0906 4.02857 14.3438 3.71429 14.3438H3.14286C2.82857 14.3438 2.57143 14.0906 2.57143 13.7812V13.2188ZM12.2857 3.65625H12.8571C13.1714 3.65625 13.4286 3.90937 13.4286 4.21875V4.78125C13.4286 5.09063 13.1714 5.34375 12.8571 5.34375H12.2857C11.9714 5.34375 11.7143 5.09063 11.7143 4.78125V4.21875C11.7143 3.90937 11.9714 3.65625 12.2857 3.65625ZM11.4286 15.75C11.4286 15.4406 11.6857 15.1875 12 15.1875H12.5714C12.8857 15.1875 13.1429 15.4406 13.1429 15.75V16.3125C13.1429 16.6219 12.8857 16.875 12.5714 16.875H12C11.6857 16.875 11.4286 16.6219 11.4286 16.3125V15.75ZM14.8571 15.1875H15.4286C15.7429 15.1875 16 15.4406 16 15.75V16.3125C16 16.6219 15.7429 16.875 15.4286 16.875H14.8571C14.5429 16.875 14.2857 16.6219 14.2857 16.3125V15.75C14.2857 15.4406 14.5429 15.1875 14.8571 15.1875Z" fill="#575F6B"/>
</svg>
