<svg width="20" height="14" viewBox="0 0 20 14" fill="none" xmlns="http://www.w3.org/2000/svg">
<path d="M7.88 1.78C8.94 1.78 9.89 2.17 10.72 2.94C11.45 3.73 11.83 4.63 11.88 5.63C11.9 6.65 11.58 7.58 10.91 8.41L10.75 8.6C10.52 8.81 10.28 8.82 10.03 8.63C9.82 8.42 9.81 8.19 10 7.94L10.16 7.75C10.68 7.13 10.92 6.43 10.88 5.66C10.86 4.91 10.57 4.24 10 3.66C9.4 3.08 8.69 2.78 7.88 2.78C7.07 2.78 6.39 3.07 5.79 3.66L1.88 7.57C1.3 8.17 1 8.88 1 9.69C1 10.5 1.29 11.18 1.88 11.78C2.5 12.38 3.21 12.69 4 12.69C4.79 12.69 5.5 12.39 6.12 11.78L6.84 11.09C7.07 10.88 7.3 10.88 7.53 11.09C7.74 11.32 7.74 11.55 7.53 11.78L6.84 12.5C6.01 13.29 5.06 13.69 4 13.69C2.94 13.69 1.99 13.29 1.16 12.5C0.39 11.67 0 10.72 0 9.66C0 8.6 0.38 7.66 1.16 6.85L5.07 2.94C5.88 2.17 6.82 1.78 7.88 1.78ZM11.41 11.9C10.37 11.9 9.43 11.52 8.6 10.74C7.87 9.95 7.48 9.05 7.44 8.05C7.4 7.03 7.71 6.1 8.38 5.27L8.57 5.08C8.8 4.87 9.04 4.86 9.29 5.05C9.5 5.26 9.52 5.49 9.35 5.74L9.16 5.93C8.64 6.55 8.4 7.25 8.44 8.02C8.46 8.77 8.75 9.44 9.32 10.02C9.92 10.6 10.63 10.9 11.44 10.9C12.25 10.9 12.93 10.61 13.53 10.02L17.44 6.11C18.02 5.51 18.32 4.81 18.32 4.02C18.32 3.23 18.03 2.5 17.44 1.9C16.82 1.3 16.11 0.99 15.32 0.99C14.53 0.99 13.82 1.29 13.2 1.9L12.51 2.59C12.26 2.8 12.02 2.8 11.79 2.59C11.58 2.34 11.58 2.11 11.79 1.9L12.51 1.18C13.32 0.39 14.26 -0.0100002 15.32 -0.0100002C16.38 -0.0100002 17.33 0.39 18.16 1.18C18.93 1.99 19.32 2.93 19.32 3.99C19.32 5.05 18.93 5.99 18.16 6.8L14.22 10.74C13.41 11.51 12.47 11.9 11.41 11.9Z" fill="#575F6B"/>
</svg>
