<svg id="투명도배경_검" xmlns="http://www.w3.org/2000/svg" xmlns:xlink="http://www.w3.org/1999/xlink" width="108" height="12" viewBox="0 0 108 12">
  <defs>
    <clipPath id="clip-path">
      <rect id="사각형_26311" data-name="사각형 26311" width="108" height="12" rx="6" transform="translate(1064 297)" fill="#fff"/>
    </clipPath>
  </defs>
  <g id="마스크_그룹_22" data-name="마스크 그룹 22" transform="translate(-1064 -297)" clip-path="url(#clip-path)">
    <g id="그룹_19037" data-name="그룹 19037" transform="translate(-7)">
      <rect id="Rectangle" width="6" height="7" transform="translate(1152 305)" fill="#212121"/>
      <rect id="Rectangle-2" data-name="Rectangle" width="6" height="7" transform="translate(1175 305)" fill="#212121"/>
      <rect id="Rectangle-3" data-name="Rectangle" width="6" height="7" transform="translate(1141 305)" fill="#212121"/>
      <rect id="Rectangle-4" data-name="Rectangle" width="6" height="7" transform="translate(1164 305)" fill="#212121"/>
      <rect id="Rectangle-5" data-name="Rectangle" width="7" height="7" transform="translate(1128 305)" fill="#212121"/>
      <rect id="Rectangle-6" data-name="Rectangle" width="6" height="7" transform="translate(1117 305)" fill="#212121"/>
      <rect id="Rectangle-7" data-name="Rectangle" width="6" height="7" transform="translate(1105 305)" fill="#212121"/>
      <rect id="Rectangle-8" data-name="Rectangle" width="6" height="7" transform="translate(1094 305)" fill="#212121"/>
      <rect id="Rectangle-9" data-name="Rectangle" width="7" height="7" transform="translate(1081 305)" fill="#212121"/>
      <rect id="Rectangle-10" data-name="Rectangle" width="6" height="7" transform="translate(1070 305)" fill="#212121"/>
      <rect id="Rectangle-11" data-name="Rectangle" width="5" height="5" transform="translate(1147 300)" fill="#212121"/>
      <rect id="Rectangle-12" data-name="Rectangle" width="5" height="5" transform="translate(1170 300)" fill="#212121"/>
      <rect id="Rectangle-13" data-name="Rectangle" width="5" height="5" transform="translate(1181 300)" fill="#212121"/>
      <rect id="Rectangle-14" data-name="Rectangle" width="6" height="5" transform="translate(1135 300)" fill="#212121"/>
      <rect id="Rectangle-15" data-name="Rectangle" width="6" height="5" transform="translate(1158 300)" fill="#212121"/>
      <rect id="Rectangle-16" data-name="Rectangle" width="5" height="5" transform="translate(1123 300)" fill="#212121"/>
      <rect id="Rectangle-17" data-name="Rectangle" width="6" height="5" transform="translate(1111 300)" fill="#212121"/>
      <rect id="Rectangle-18" data-name="Rectangle" width="5" height="5" transform="translate(1100 300)" fill="#212121"/>
      <rect id="Rectangle-19" data-name="Rectangle" width="6" height="5" transform="translate(1088 300)" fill="#212121"/>
      <rect id="Rectangle-20" data-name="Rectangle" width="5" height="5" transform="translate(1076 300)" fill="#212121"/>
      <rect id="Rectangle-21" data-name="Rectangle" width="6" height="5" transform="translate(1064 300)" fill="#212121"/>
      <rect id="Rectangle-22" data-name="Rectangle" width="6" height="6" transform="translate(1152 294)" fill="#212121"/>
      <rect id="Rectangle-23" data-name="Rectangle" width="6" height="6" transform="translate(1175 294)" fill="#212121"/>
      <rect id="Rectangle-24" data-name="Rectangle" width="6" height="6" transform="translate(1141 294)" fill="#212121"/>
      <rect id="Rectangle-25" data-name="Rectangle" width="6" height="6" transform="translate(1164 294)" fill="#212121"/>
      <rect id="Rectangle-26" data-name="Rectangle" width="7" height="6" transform="translate(1128 294)" fill="#212121"/>
      <rect id="Rectangle-27" data-name="Rectangle" width="6" height="6" transform="translate(1117 294)" fill="#212121"/>
      <rect id="Rectangle-28" data-name="Rectangle" width="6" height="6" transform="translate(1105 294)" fill="#212121"/>
      <rect id="Rectangle-29" data-name="Rectangle" width="6" height="6" transform="translate(1094 294)" fill="#212121"/>
      <rect id="Rectangle-30" data-name="Rectangle" width="7" height="6" transform="translate(1081 294)" fill="#212121"/>
      <rect id="Rectangle-31" data-name="Rectangle" width="6" height="6" transform="translate(1070 294)" fill="#212121"/>
      <rect id="Rectangle-32" data-name="Rectangle" width="5" height="6" transform="translate(1147 288)" fill="#212121"/>
      <rect id="Rectangle-33" data-name="Rectangle" width="5" height="6" transform="translate(1170 288)" fill="#212121"/>
      <rect id="Rectangle-34" data-name="Rectangle" width="5" height="6" transform="translate(1181 288)" fill="#212121"/>
      <rect id="Rectangle-35" data-name="Rectangle" width="6" height="6" transform="translate(1135 288)" fill="#212121"/>
      <rect id="Rectangle-36" data-name="Rectangle" width="6" height="6" transform="translate(1158 288)" fill="#212121"/>
      <rect id="Rectangle-37" data-name="Rectangle" width="5" height="6" transform="translate(1123 288)" fill="#212121"/>
      <rect id="Rectangle-38" data-name="Rectangle" width="6" height="6" transform="translate(1111 288)" fill="#212121"/>
      <rect id="Rectangle-39" data-name="Rectangle" width="5" height="6" transform="translate(1100 288)" fill="#212121"/>
      <rect id="Rectangle-40" data-name="Rectangle" width="6" height="6" transform="translate(1088 288)" fill="#212121"/>
      <rect id="Rectangle-41" data-name="Rectangle" width="5" height="6" transform="translate(1076 288)" fill="#212121"/>
      <rect id="Rectangle-42" data-name="Rectangle" width="6" height="6" transform="translate(1064 288)" fill="#212121"/>
    </g>
  </g>
</svg>
