<svg id="투명도배경_흰" xmlns="http://www.w3.org/2000/svg" xmlns:xlink="http://www.w3.org/1999/xlink" width="108" height="12" viewBox="0 0 108 12">
  <defs>
    <clipPath id="clip-path">
      <rect id="사각형_26312" data-name="사각형 26312" width="108" height="12" rx="6" transform="translate(1064 227)" fill="#fff"/>
    </clipPath>
  </defs>
  <g id="마스크_그룹_23" data-name="마스크 그룹 23" transform="translate(-1064 -227)" clip-path="url(#clip-path)">
    <g id="그룹_19038" data-name="그룹 19038" transform="translate(-2)">
      <rect id="Rectangle" width="6" height="7" transform="translate(1147 236)" fill="#f4f4f4"/>
      <rect id="Rectangle-2" data-name="Rectangle" width="6" height="7" transform="translate(1170 236)" fill="#f4f4f4"/>
      <rect id="Rectangle-3" data-name="Rectangle" width="6" height="7" transform="translate(1136 236)" fill="#f4f4f4"/>
      <rect id="Rectangle-4" data-name="Rectangle" width="5" height="7" transform="translate(1159 236)" fill="#f4f4f4"/>
      <rect id="Rectangle-5" data-name="Rectangle" width="6" height="7" transform="translate(1123 236)" fill="#f4f4f4"/>
      <rect id="Rectangle-6" data-name="Rectangle" width="5" height="7" transform="translate(1112 236)" fill="#f4f4f4"/>
      <rect id="Rectangle-7" data-name="Rectangle" width="6" height="7" transform="translate(1100 236)" fill="#f4f4f4"/>
      <rect id="Rectangle-8" data-name="Rectangle" width="7" height="7" transform="translate(1087 236)" fill="#f4f4f4"/>
      <rect id="Rectangle-9" data-name="Rectangle" width="6" height="7" transform="translate(1076 236)" fill="#f4f4f4"/>
      <rect id="Rectangle-10" data-name="Rectangle" width="6" height="7" transform="translate(1064 236)" fill="#f4f4f4"/>
      <rect id="Rectangle-11" data-name="Rectangle" width="6" height="7" transform="translate(1182 236)" fill="#f4f4f4"/>
      <rect id="Rectangle-12" data-name="Rectangle" width="6" height="6" transform="translate(1153 230)" fill="#f4f4f4"/>
      <rect id="Rectangle-13" data-name="Rectangle" width="6" height="6" transform="translate(1176 230)" fill="#f4f4f4"/>
      <rect id="Rectangle-14" data-name="Rectangle" width="5" height="6" transform="translate(1142 230)" fill="#f4f4f4"/>
      <rect id="Rectangle-15" data-name="Rectangle" width="6" height="6" transform="translate(1164 230)" fill="#f4f4f4"/>
      <rect id="Rectangle-16" data-name="Rectangle" width="7" height="6" transform="translate(1129 230)" fill="#f4f4f4"/>
      <rect id="Rectangle-17" data-name="Rectangle" width="6" height="6" transform="translate(1117 230)" fill="#f4f4f4"/>
      <rect id="Rectangle-18" data-name="Rectangle" width="6" height="6" transform="translate(1106 230)" fill="#f4f4f4"/>
      <rect id="Rectangle-19" data-name="Rectangle" width="6" height="6" transform="translate(1094 230)" fill="#f4f4f4"/>
      <rect id="Rectangle-20" data-name="Rectangle" width="5" height="6" transform="translate(1082 230)" fill="#f4f4f4"/>
      <rect id="Rectangle-21" data-name="Rectangle" width="6" height="6" transform="translate(1070 230)" fill="#f4f4f4"/>
      <rect id="Rectangle-22" data-name="Rectangle" width="6" height="5" transform="translate(1147 225)" fill="#f4f4f4"/>
      <rect id="Rectangle-23" data-name="Rectangle" width="6" height="5" transform="translate(1170 225)" fill="#f4f4f4"/>
      <rect id="Rectangle-24" data-name="Rectangle" width="6" height="5" transform="translate(1136 225)" fill="#f4f4f4"/>
      <rect id="Rectangle-25" data-name="Rectangle" width="5" height="5" transform="translate(1159 225)" fill="#f4f4f4"/>
      <rect id="Rectangle-26" data-name="Rectangle" width="6" height="5" transform="translate(1123 225)" fill="#f4f4f4"/>
      <rect id="Rectangle-27" data-name="Rectangle" width="5" height="5" transform="translate(1112 225)" fill="#f4f4f4"/>
      <rect id="Rectangle-28" data-name="Rectangle" width="6" height="5" transform="translate(1100 225)" fill="#f4f4f4"/>
      <rect id="Rectangle-29" data-name="Rectangle" width="7" height="5" transform="translate(1087 225)" fill="#f4f4f4"/>
      <rect id="Rectangle-30" data-name="Rectangle" width="6" height="5" transform="translate(1076 225)" fill="#f4f4f4"/>
      <rect id="Rectangle-31" data-name="Rectangle" width="6" height="5" transform="translate(1064 225)" fill="#f4f4f4"/>
      <rect id="Rectangle-32" data-name="Rectangle" width="6" height="5" transform="translate(1182 225)" fill="#f4f4f4"/>
      <rect id="Rectangle-33" data-name="Rectangle" width="6" height="6" transform="translate(1153 219)" fill="#f4f4f4"/>
      <rect id="Rectangle-34" data-name="Rectangle" width="6" height="6" transform="translate(1176 219)" fill="#f4f4f4"/>
      <rect id="Rectangle-35" data-name="Rectangle" width="5" height="6" transform="translate(1142 219)" fill="#f4f4f4"/>
      <rect id="Rectangle-36" data-name="Rectangle" width="6" height="6" transform="translate(1164 219)" fill="#f4f4f4"/>
      <rect id="Rectangle-37" data-name="Rectangle" width="7" height="6" transform="translate(1129 219)" fill="#f4f4f4"/>
      <rect id="Rectangle-38" data-name="Rectangle" width="6" height="6" transform="translate(1117 219)" fill="#f4f4f4"/>
      <rect id="Rectangle-39" data-name="Rectangle" width="6" height="6" transform="translate(1106 219)" fill="#f4f4f4"/>
      <rect id="Rectangle-40" data-name="Rectangle" width="6" height="6" transform="translate(1094 219)" fill="#f4f4f4"/>
      <rect id="Rectangle-41" data-name="Rectangle" width="5" height="6" transform="translate(1082 219)" fill="#f4f4f4"/>
      <rect id="Rectangle-42" data-name="Rectangle" width="6" height="6" transform="translate(1070 219)" fill="#f4f4f4"/>
    </g>
  </g>
</svg>
