<svg xmlns="http://www.w3.org/2000/svg" xmlns:xlink="http://www.w3.org/1999/xlink" width="15.6" height="15.6" viewBox="0 0 15.6 15.6">
  <defs>
    <linearGradient id="linear-gradient" x2="1.086" y2="1.083" gradientUnits="objectBoundingBox">
      <stop offset="0" stop-color="#f9f9fd"/>
      <stop offset="0.49" stop-color="#f7f7fb"/>
      <stop offset="1" stop-color="#e5e6ec"/>
    </linearGradient>
  </defs>
  <path id="Shape" d="M15,15.6a.6.6,0,1,1,.6-.6A.6.6,0,0,1,15,15.6Zm-3.6,0A.6.6,0,1,1,12,15,.6.6,0,0,1,11.4,15.6Zm-3.6,0a.6.6,0,1,1,.6-.6A.6.6,0,0,1,7.8,15.6Zm-3.6,0a.6.6,0,1,1,.6-.6A.6.6,0,0,1,4.2,15.6Zm-3.6,0a.6.6,0,1,1,.6-.6A.6.6,0,0,1,.6,15.6ZM15,12a.6.6,0,1,1,.6-.6A.6.6,0,0,1,15,12Zm-4.2,0h-6a1.2,1.2,0,0,1-1.2-1.2v-6A1.2,1.2,0,0,1,4.8,3.6h6A1.2,1.2,0,0,1,12,4.8v6A1.2,1.2,0,0,1,10.8,12Zm-6-7.2v6h6v-6ZM.6,12a.6.6,0,1,1,.6-.6A.6.6,0,0,1,.6,12ZM15,8.4a.6.6,0,1,1,.6-.6A.6.6,0,0,1,15,8.4ZM.6,8.4a.6.6,0,1,1,.6-.6A.6.6,0,0,1,.6,8.4ZM15,4.8a.6.6,0,1,1,.6-.6A.6.6,0,0,1,15,4.8ZM.6,4.8a.6.6,0,1,1,.6-.6A.6.6,0,0,1,.6,4.8ZM15,1.2a.6.6,0,1,1,.6-.6A.6.6,0,0,1,15,1.2Zm-3.6,0A.6.6,0,1,1,12,.6.6.6,0,0,1,11.4,1.2Zm-3.6,0A.6.6,0,1,1,8.4.6.6.6,0,0,1,7.8,1.2Zm-3.6,0A.6.6,0,1,1,4.8.6.6.6,0,0,1,4.2,1.2ZM.6,1.2A.6.6,0,1,1,1.2.6.6.6,0,0,1,.6,1.2Z" fill="#3c3c3c"/>
</svg>
