<svg xmlns="http://www.w3.org/2000/svg" xmlns:xlink="http://www.w3.org/1999/xlink" width="18" height="18" viewBox="0 0 18 18">
  <defs>
    <linearGradient id="linear-gradient" x2="1" y2="1" gradientUnits="objectBoundingBox">
      <stop offset="0" stop-color="#eaebf3"/>
      <stop offset="1" stop-color="#a0a6ad"/>
    </linearGradient>
  </defs>
  <path id="Shape" d="M16.1,18a.317.317,0,0,1-.252-.123L14.26,15.842a.32.32,0,0,1,.252-.517h.944V7.656h-.944a.32.32,0,0,1-.252-.517L15.844,5.1a.319.319,0,0,1,.5,0L17.932,7.14a.32.32,0,0,1-.253.517h-.944v7.669h.944a.32.32,0,0,1,.253.517l-1.584,2.035A.317.317,0,0,1,16.1,18Zm-5.113-.118H2.036A1.92,1.92,0,0,1,.119,15.965V7.017A1.92,1.92,0,0,1,2.036,5.1h8.946A1.92,1.92,0,0,1,12.9,7.017v8.948A1.92,1.92,0,0,1,10.983,17.882ZM2.036,6.378a.64.64,0,0,0-.64.638v8.948a.64.64,0,0,0,.64.638h8.946a.64.64,0,0,0,.64-.638V7.017a.64.64,0,0,0-.64-.638Zm8.63-2.571a.328.328,0,0,1-.223-.089.315.315,0,0,1-.1-.231V2.543H2.675v.945a.322.322,0,0,1-.322.32A.314.314,0,0,1,2.16,3.74L.123,2.156a.319.319,0,0,1,0-.5L2.16.068A.314.314,0,0,1,2.354,0a.321.321,0,0,1,.321.32v.945h7.67V.32A.321.321,0,0,1,10.665,0a.314.314,0,0,1,.195.068L12.9,1.652a.319.319,0,0,1,0,.5L10.86,3.74A.314.314,0,0,1,10.666,3.807Z" transform="translate(0 0)" fill="url(#linear-gradient)"/>
</svg>
